<svg width="154" height="41" viewBox="0 0 154 41" version="1.1" xmlns="http://www.w3.org/2000/svg" xmlns:xlink="http://www.w3.org/1999/xlink">
<title>Group 2</title>
<desc>Created using Figma</desc>
<g id="Canvas" transform="translate(7803 -4743)">
<g id="Group 2" opacity="0.5">
<g id="Group">
<g id="intelligent speaker">
<use xlink:href="#path0_fill" transform="translate(-7747 4752)" fill="#FFFFFF"/>
<use xlink:href="#path1_fill" transform="translate(-7747 4752)" fill="#FFFFFF"/>
<use xlink:href="#path2_fill" transform="translate(-7747 4752)" fill="#FFFFFF"/>
<use xlink:href="#path3_fill" transform="translate(-7747 4752)" fill="#FFFFFF"/>
<use xlink:href="#path4_fill" transform="translate(-7747 4752)" fill="#FFFFFF"/>
<use xlink:href="#path5_fill" transform="translate(-7747 4752)" fill="#FFFFFF"/>
<use xlink:href="#path6_fill" transform="translate(-7747 4752)" fill="#FFFFFF"/>
<use xlink:href="#path7_fill" transform="translate(-7747 4752)" fill="#FFFFFF"/>
<use xlink:href="#path8_fill" transform="translate(-7747 4752)" fill="#FFFFFF"/>
<use xlink:href="#path9_fill" transform="translate(-7747 4752)" fill="#FFFFFF"/>
<use xlink:href="#path10_fill" transform="translate(-7747 4752)" fill="#FFFFFF"/>
<use xlink:href="#path11_fill" transform="translate(-7747 4752)" fill="#FFFFFF"/>
<use xlink:href="#path12_fill" transform="translate(-7747 4752)" fill="#FFFFFF"/>
<use xlink:href="#path13_fill" transform="translate(-7747 4752)" fill="#FFFFFF"/>
<use xlink:href="#path14_fill" transform="translate(-7747 4752)" fill="#FFFFFF"/>
<use xlink:href="#path15_fill" transform="translate(-7747 4752)" fill="#FFFFFF"/>
<use xlink:href="#path16_fill" transform="translate(-7747 4752)" fill="#FFFFFF"/>
<use xlink:href="#path17_fill" transform="translate(-7747 4752)" fill="#FFFFFF"/>
</g>
</g>
<g id="Rectangle (Stroke)">
<use xlink:href="#path18_fill" transform="matrix(-4.37114e-08 -1 1 -4.37114e-08 -7803 4784)" fill="#FFFFFF"/>
</g>
</g>
</g>
<defs>
<path id="path0_fill" d="M 0.787932 10.4143L 2.99414 10.4143L 2.99414 0.175522L 0.787932 0.175522L 0.787932 10.4143Z"/>
<path id="path1_fill" d="M 5.5003 10.4143L 7.67786 10.4143L 7.67786 3.90536L 12.5344 10.4143L 14.4111 10.4143L 14.4111 0.175522L 12.2335 0.175522L 12.2335 6.47968L 7.5346 0.175522L 5.5003 0.175522L 5.5003 10.4143Z"/>
<path id="path2_fill" d="M 19.1536 10.4143L 21.3598 10.4143L 21.3598 2.25253L 24.4112 2.25253L 24.4112 0.175522L 16.1021 0.175522L 16.1021 2.25253L 19.1536 2.25253L 19.1536 10.4143Z"/>
<path id="path3_fill" d="M 26.108 10.4143L 33.7437 10.4143L 33.7437 8.41043L 28.2998 8.41043L 28.2998 6.26028L 33.0274 6.26028L 33.0274 4.25641L 28.2998 4.25641L 28.2998 2.1794L 33.6721 2.1794L 33.6721 0.175522L 26.108 0.175522L 26.108 10.4143Z"/>
<path id="path4_fill" d="M 35.7053 10.4143L 42.9113 10.4143L 42.9113 8.36655L 37.9115 8.36655L 37.9115 0.175522L 35.7053 0.175522L 35.7053 10.4143Z"/>
<path id="path5_fill" d="M 44.5751 10.4143L 51.7811 10.4143L 51.7811 8.36655L 46.7813 8.36655L 46.7813 0.175522L 44.5751 0.175522L 44.5751 10.4143Z"/>
<path id="path6_fill" d="M 53.5452 10.4143L 55.7514 10.4143L 55.7514 0.175522L 53.5452 0.175522L 53.5452 10.4143Z"/>
<path id="path7_fill" d="M 63.0855 10.5898C 64.9192 10.5898 66.3375 9.85848 67.3689 8.96625L 67.3689 4.51969L 63.0138 4.51969L 63.0138 6.46506L 65.2344 6.46506L 65.2344 7.92774C 64.6756 8.33729 63.9593 8.54207 63.1571 8.54207C 61.3807 8.54207 60.12 7.16715 60.12 5.29491C 60.12 3.52507 61.395 2.07701 62.9995 2.07701C 64.1599 2.07701 64.8475 2.45731 65.6212 3.11551L 67.0108 1.40418C 65.965 0.497312 64.8762 0 63.0711 0C 60.034 0 57.8135 2.38417 57.8135 5.29491C 57.8135 8.35192 59.9624 10.5898 63.0855 10.5898Z"/>
<path id="path8_fill" d="M 69.4918 10.4143L 77.1275 10.4143L 77.1275 8.41043L 71.6836 8.41043L 71.6836 6.26028L 76.4112 6.26028L 76.4112 4.25641L 71.6836 4.25641L 71.6836 2.1794L 77.0559 2.1794L 77.0559 0.175522L 69.4918 0.175522L 69.4918 10.4143Z"/>
<path id="path9_fill" d="M 79.0891 10.4143L 81.2666 10.4143L 81.2666 3.90536L 86.1232 10.4143L 87.9999 10.4143L 87.9999 0.175522L 85.8223 0.175522L 85.8223 6.47968L 81.1234 0.175522L 79.0891 0.175522L 79.0891 10.4143Z"/>
<path id="path10_fill" d="M 92.7423 10.4143L 94.9486 10.4143L 94.9486 2.25253L 98 2.25253L 98 0.175522L 89.6909 0.175522L 89.6909 2.25253L 92.7423 2.25253L 92.7423 10.4143Z"/>
<path id="path11_fill" d="M 4.25483 26C 6.41806 26 7.93662 24.8591 7.93662 22.826C 7.93662 21.0123 6.79054 20.2663 4.75624 19.7251C 3.02279 19.2717 2.59301 19.0523 2.59301 18.3794C 2.59301 17.8529 3.03712 17.4579 3.88235 17.4579C 4.72759 17.4579 5.60148 17.8382 6.48969 18.4672L 7.63577 16.7705C 6.61863 15.9367 5.37226 15.4687 3.91101 15.4687C 1.86238 15.4687 0.401129 16.6973 0.401129 18.5549C 0.401129 20.6173 1.7048 21.1878 3.72477 21.7143C 5.40091 22.1531 5.74474 22.4457 5.74474 23.0161C 5.74474 23.6451 5.20035 24.0108 4.29781 24.0108C 3.15173 24.0108 2.20621 23.5281 1.30367 22.7675L 0 24.3618C 1.20339 25.4588 2.73627 26 4.25483 26Z"/>
<path id="path12_fill" d="M 9.85127 25.8537L 12.0575 25.8537L 12.0575 22.7821L 13.7336 22.7821C 15.9828 22.7821 17.7879 21.5534 17.7879 19.1839C 17.7879 17.063 16.341 15.615 13.9485 15.615L 9.85127 15.615L 9.85127 25.8537ZM 12.0575 20.7782L 12.0575 17.6481L 13.7623 17.6481C 14.8654 17.6481 15.553 18.1893 15.553 19.1985C 15.553 20.1054 14.9084 20.7782 13.8053 20.7782L 12.0575 20.7782Z"/>
<path id="path13_fill" d="M 19.4206 25.8537L 27.0564 25.8537L 27.0564 23.8499L 21.6125 23.8499L 21.6125 21.6997L 26.3401 21.6997L 26.3401 19.6958L 21.6125 19.6958L 21.6125 17.6188L 26.9848 17.6188L 26.9848 15.615L 19.4206 15.615L 19.4206 25.8537Z"/>
<path id="path14_fill" d="M 28.1584 25.8537L 30.4076 25.8537L 31.3244 23.5573L 35.5649 23.5573L 36.4818 25.8537L 38.7883 25.8537L 34.4905 15.5418L 32.4562 15.5418L 28.1584 25.8537ZM 32.1124 21.5681L 33.4447 18.2478L 34.777 21.5681L 32.1124 21.5681Z"/>
<path id="path15_fill" d="M 40.3361 25.8537L 42.5423 25.8537L 42.5423 22.7236L 43.7027 21.4949L 46.8114 25.8537L 49.4617 25.8537L 45.1926 19.9591L 49.2755 15.615L 46.6109 15.615L 42.5423 20.0908L 42.5423 15.615L 40.3361 15.615L 40.3361 25.8537Z"/>
<path id="path16_fill" d="M 50.8008 25.8537L 58.4365 25.8537L 58.4365 23.8499L 52.9926 23.8499L 52.9926 21.6997L 57.7202 21.6997L 57.7202 19.6958L 52.9926 19.6958L 52.9926 17.6188L 58.3649 17.6188L 58.3649 15.615L 50.8008 15.615L 50.8008 25.8537Z"/>
<path id="path17_fill" d="M 60.3981 25.8537L 62.6043 25.8537L 62.6043 22.5773L 64.3091 22.5773L 66.4867 25.8537L 69.0653 25.8537L 66.6156 22.197C 67.8906 21.7143 68.7645 20.6758 68.7645 19.023C 68.7645 18.0284 68.4636 17.2239 67.9049 16.6535C 67.2459 15.9806 66.2574 15.615 64.9824 15.615L 60.3981 15.615L 60.3981 25.8537ZM 62.6043 20.5881L 62.6043 17.6481L 64.7962 17.6481C 65.8706 17.6481 66.5296 18.1454 66.5296 19.1108C 66.5296 20.003 65.9136 20.5881 64.8392 20.5881L 62.6043 20.5881Z"/>
<path id="path18_fill" fill-rule="evenodd" d="M 33.051 7.91667L 7.94898 7.91667L 7.94898 32.0833L 33.051 32.0833L 33.051 7.91667ZM 7.94898 0C 3.55888 0 0 3.54441 0 7.91667L 0 32.0833C 0 36.4556 3.55888 40 7.94898 40L 33.051 40C 37.4411 40 41 36.4556 41 32.0833L 41 7.91667C 41 3.54441 37.4411 0 33.051 0L 7.94898 0Z"/>
</defs>
</svg>
