<svg width="83" height="75" viewBox="0 0 83 75" version="1.1" xmlns="http://www.w3.org/2000/svg" xmlns:xlink="http://www.w3.org/1999/xlink">
<title>&#226;&#128;&#156;</title>
<desc>Created using Figma</desc>
<g id="Canvas" transform="translate(7809 -428)">
<g id="&#226;&#128;&#156;">
<use xlink:href="#path0_fill" transform="translate(-7809 428)" fill="#1B1B29" fill-opacity="0.1"/>
</g>
</g>
<defs>
<path id="path0_fill" d="M 33.2127 75L 33.2127 39.0187L 17.7857 39.0187C 17.7857 33.2555 18.8765 28.4268 21.0581 24.5327C 23.2397 20.4829 27.2912 17.4455 33.2127 15.4206L 33.2127 0C 28.382 0.623053 23.863 2.1028 19.6556 4.43925C 15.6041 6.61994 12.098 9.42368 9.13721 12.8505C 6.17647 16.2773 3.83904 20.2492 2.12492 24.7664C 0.566636 29.2835 -0.134579 34.1121 0.0212497 39.2523L 0.0212497 75L 33.2127 75ZM 83 75L 83 39.0187L 67.573 39.0187C 67.573 33.2555 68.6638 28.4268 70.8454 24.5327C 73.027 20.4829 77.0785 17.4455 83 15.4206L 83 0C 78.1693 0.623053 73.6503 2.1028 69.4429 4.43925C 65.3913 6.61994 61.8852 9.42368 58.9245 12.8505C 55.9637 16.2773 53.6263 20.2492 51.9122 24.7664C 50.3539 29.2835 49.6527 34.1121 49.8085 39.2523L 49.8085 75L 83 75Z"/>
</defs>
</svg>
