<svg width="22" height="35" viewBox="0 0 22 35" version="1.1" xmlns="http://www.w3.org/2000/svg" xmlns:xlink="http://www.w3.org/1999/xlink">
<title>Vector</title>
<desc>Created using Figma</desc>
<g id="Canvas" transform="translate(6457 -3668)">
<g id="Vector">
<use xlink:href="#path0_stroke" transform="matrix(-1 -5.34378e-24 -5.34378e-24 1 -6438.17 3671.02)" fill="#FFFFFF"/>
</g>
</g>
<defs>
<path id="path0_stroke" d="M 14.0246 30.9637C 15.0135 31.9272 16.5963 31.9066 17.5599 30.9177C 18.5234 29.9288 18.5028 28.346 17.5138 27.3825L 14.0246 30.9637ZM 0 13.809L -1.647 11.9282C -2.17167 12.3877 -2.48058 13.0454 -2.49912 13.7426C -2.51765 14.4397 -2.24413 15.1129 -1.74461 15.5996L 0 13.809ZM 17.4162 1.8808C 18.455 0.971183 18.5596 -0.608265 17.65 -1.647C 16.7404 -2.68573 15.161 -2.79041 14.1222 -1.8808L 17.4162 1.8808ZM 17.5138 27.3825L 1.74461 12.0184L -1.74461 15.5996L 14.0246 30.9637L 17.5138 27.3825ZM 1.647 15.6898L 17.4162 1.8808L 14.1222 -1.8808L -1.647 11.9282L 1.647 15.6898Z"/>
</defs>
</svg>
