<svg width="107" height="105" viewBox="0 0 107 105" version="1.1" xmlns="http://www.w3.org/2000/svg" xmlns:xlink="http://www.w3.org/1999/xlink">
<title>Group 10</title>
<desc>Created using Figma</desc>
<g id="Canvas" transform="translate(7293 -1508)">
<g id="Group 10">
<g id="Vector 4">
<use xlink:href="#path0_fill" transform="translate(-7285.78 1570.91)" fill="#FFFFFF"/>
<use xlink:href="#path1_stroke" transform="translate(-7285.78 1570.91)" fill="#3A28B2"/>
</g>
<g id="Vector 11">
<use xlink:href="#path2_stroke" transform="translate(-7290.56 1570.43)" fill="#3A28B2"/>
</g>
<g id="Vector 11.1">
<use xlink:href="#path3_stroke" transform="translate(-7206.14 1570.43)" fill="#3A28B2"/>
</g>
<g id="Vector 5">
<use xlink:href="#path4_stroke" transform="translate(-7268.02 1601.16)" fill="#3A28B2"/>
</g>
<g id="Rectangle 11">
<use xlink:href="#path5_fill" transform="translate(-7223.41 1564.66)" fill="#FFFFFF"/>
<mask id="mask0_outline_ins">
<use xlink:href="#path5_fill" fill="white" transform="translate(-7223.41 1564.66)"/>
</mask>
<g mask="url(#mask0_outline_ins)">
<use xlink:href="#path6_stroke_2x" transform="translate(-7223.41 1564.66)" fill="#3A28B2"/>
</g>
</g>
<g id="Vector 7">
<use xlink:href="#path7_stroke" transform="matrix(1 -2.45223e-16 2.44636e-16 1 -7219.74 1577.88)" fill="#3A28B2"/>
</g>
<g id="Ellipse 2">
<use xlink:href="#path8_fill" transform="translate(-7249.48 1508)" fill="#FFFFFF"/>
<mask id="mask1_outline_ins">
<use xlink:href="#path8_fill" fill="white" transform="translate(-7249.48 1508)"/>
</mask>
<g mask="url(#mask1_outline_ins)">
<use xlink:href="#path9_stroke_2x" transform="translate(-7249.48 1508)" fill="#3A28B2"/>
</g>
</g>
<g id="Ellipse 2.1">
<use xlink:href="#path10_fill" transform="translate(-7263.87 1529.13)" fill="#FFFFFF"/>
<mask id="mask2_outline_ins">
<use xlink:href="#path10_fill" fill="white" transform="translate(-7263.87 1529.13)"/>
</mask>
<g mask="url(#mask2_outline_ins)">
<use xlink:href="#path11_stroke_2x" transform="translate(-7263.87 1529.13)" fill="#3A28B2"/>
</g>
</g>
<g id="Ellipse 2.2">
<use xlink:href="#path12_fill" transform="translate(-7241.81 1542.57)" fill="#FFFFFF"/>
<mask id="mask3_outline_ins">
<use xlink:href="#path12_fill" fill="white" transform="translate(-7241.81 1542.57)"/>
</mask>
<g mask="url(#mask3_outline_ins)">
<use xlink:href="#path13_stroke_2x" transform="translate(-7241.81 1542.57)" fill="#3A28B2"/>
</g>
</g>
</g>
</g>
<defs>
<path id="path0_fill" d="M 5.29403 20.1686C 0.689567 14.7903 -0.141793 4.48192 0.018084 0L 93.5463 0C 93.5463 4.32185 92.4911 14.4062 88.2704 20.1686C 82.9945 27.3717 74.8407 30.253 70.0444 30.253L 21.122 30.253C 16.3257 30.253 11.0496 26.8915 5.29403 20.1686Z"/>
<path id="path1_stroke" d="M 0.018084 0L 0.018084 -1.75L -1.6706 -1.75L -1.7308 -0.0623855L 0.018084 0ZM 5.29403 20.1686L 3.96465 21.3067L 3.96465 21.3067L 5.29403 20.1686ZM 88.2704 20.1686L 86.8586 19.1346L 88.2704 20.1686ZM 93.5463 0L 95.2963 0L 95.2963 -1.75L 93.5463 -1.75L 93.5463 0ZM -1.7308 -0.0623855C -1.81183 2.24946 -1.63107 6.15077 -0.846458 10.092C -0.0615854 14.0087 1.3733 18.2799 3.96465 21.3067L 6.6234 19.0305C 4.6103 16.6791 3.32727 13.1069 2.58532 9.40433C 1.8431 5.72632 1.68812 2.23246 1.76697 0.0623855L -1.7308 -0.0623855ZM 3.96465 21.3067C 9.79295 28.1146 15.518 32.003 21.122 32.003L 21.122 28.503C 17.1335 28.503 12.3062 25.6685 6.6234 19.0305L 3.96465 21.3067ZM 21.122 32.003L 70.0444 32.003L 70.0444 28.503L 21.122 28.503L 21.122 32.003ZM 70.0444 32.003C 75.3655 32.003 84.0576 28.8818 89.6822 21.2027L 86.8586 19.1346C 81.9313 25.8616 74.316 28.503 70.0444 28.503L 70.0444 32.003ZM 89.6822 21.2027C 92.0089 18.0261 93.3927 13.7797 94.204 9.90255C 95.0155 6.00616 95.2952 2.22489 95.2963 0L 91.7963 0C 91.7975 2.09696 91.5496 5.51878 90.7783 9.18563C 90.0069 12.8717 88.7526 16.5487 86.8586 19.1346L 89.6822 21.2027ZM 0.018084 1.75L 93.5463 1.75L 93.5463 -1.75L 0.018084 -1.75L 0.018084 1.75Z"/>
<path id="path2_stroke" d="M 0 -1.75C -0.966498 -1.75 -1.75 -0.966498 -1.75 0C -1.75 0.966498 -0.966498 1.75 0 1.75L 0 -1.75ZM 69.0669 1.75C 70.0334 1.75 70.8169 0.966498 70.8169 0C 70.8169 -0.966498 70.0334 -1.75 69.0669 -1.75L 69.0669 1.75ZM 0 1.75L 69.0669 1.75L 69.0669 -1.75L 0 -1.75L 0 1.75Z"/>
<path id="path3_stroke" d="M 0 -1.75C -0.966498 -1.75 -1.75 -0.966498 -1.75 0C -1.75 0.966498 -0.966498 1.75 0 1.75L 0 -1.75ZM 18.226 1.75C 19.1925 1.75 19.976 0.966498 19.976 0C 19.976 -0.966498 19.1925 -1.75 18.226 -1.75L 18.226 1.75ZM 0 1.75L 18.226 1.75L 18.226 -1.75L 0 -1.75L 0 1.75Z"/>
<path id="path4_stroke" d="M 5.00939 0.577497C 5.32833 -0.33486 4.84727 -1.33303 3.93491 -1.65197C 3.02256 -1.97091 2.02439 -1.48985 1.70545 -0.577497L 5.00939 0.577497ZM -1.65197 9.02662C -1.97091 9.93898 -1.48985 10.9371 -0.577497 11.2561C 0.33486 11.575 1.33303 11.094 1.65197 10.1816L -1.65197 9.02662ZM 56.3031 -0.649263C 55.9445 -1.54678 54.9262 -1.98368 54.0287 -1.6251C 53.1312 -1.26652 52.6943 -0.248256 53.0528 0.649263L 56.3031 -0.649263ZM 56.8899 10.2534C 57.2485 11.1509 58.2667 11.5878 59.1643 11.2292C 60.0618 10.8706 60.4987 9.85237 60.1401 8.95485L 56.8899 10.2534ZM 1.70545 -0.577497L -1.65197 9.02662L 1.65197 10.1816L 5.00939 0.577497L 1.70545 -0.577497ZM 53.0528 0.649263L 56.8899 10.2534L 60.1401 8.95485L 56.3031 -0.649263L 53.0528 0.649263Z"/>
<path id="path5_fill" d="M 0 0L 18.226 0L 18.226 23.0499L 0 23.0499L 0 0Z"/>
<path id="path6_stroke_2x" d="M 0 0L 0 -3.5L -3.5 -3.5L -3.5 0L 0 0ZM 18.226 0L 21.726 0L 21.726 -3.5L 18.226 -3.5L 18.226 0ZM 18.226 23.0499L 18.226 26.5499L 21.726 26.5499L 21.726 23.0499L 18.226 23.0499ZM 0 23.0499L -3.5 23.0499L -3.5 26.5499L 0 26.5499L 0 23.0499ZM 0 3.5L 18.226 3.5L 18.226 -3.5L 0 -3.5L 0 3.5ZM 14.726 0L 14.726 23.0499L 21.726 23.0499L 21.726 0L 14.726 0ZM 18.226 19.5499L 0 19.5499L 0 26.5499L 18.226 26.5499L 18.226 19.5499ZM 3.5 23.0499L 3.5 0L -3.5 0L -3.5 23.0499L 3.5 23.0499Z"/>
<path id="path7_stroke" d="M 0 -1.75C -0.966498 -1.75 -1.75 -0.966498 -1.75 0C -1.75 0.966498 -0.966498 1.75 0 1.75L 0 -1.75ZM 12.3169 1.75C 13.2834 1.75 14.0669 0.966498 14.0669 0C 14.0669 -0.966498 13.2834 -1.75 12.3169 -1.75L 12.3169 1.75ZM 0 1.75L 12.3169 1.75L 12.3169 -1.75L 0 -1.75L 0 1.75Z"/>
<path id="path8_fill" d="M 14.3889 7.20309C 14.3889 11.1812 11.1679 14.4062 7.19447 14.4062C 3.22107 14.4062 0 11.1812 0 7.20309C 0 3.22493 3.22107 0 7.19447 0C 11.1679 0 14.3889 3.22493 14.3889 7.20309Z"/>
<path id="path9_stroke_2x" d="M 10.8889 7.20309C 10.8889 9.2522 9.23092 10.9062 7.19447 10.9062L 7.19447 17.9062C 13.1048 17.9062 17.8889 13.1103 17.8889 7.20309L 10.8889 7.20309ZM 7.19447 10.9062C 5.15802 10.9062 3.5 9.2522 3.5 7.20309L -3.5 7.20309C -3.5 13.1103 1.28413 17.9062 7.19447 17.9062L 7.19447 10.9062ZM 3.5 7.20309C 3.5 5.15398 5.15802 3.5 7.19447 3.5L 7.19447 -3.5C 1.28413 -3.5 -3.5 1.29589 -3.5 7.20309L 3.5 7.20309ZM 7.19447 3.5C 9.23092 3.5 10.8889 5.15398 10.8889 7.20309L 17.8889 7.20309C 17.8889 1.29589 13.1048 -3.5 7.19447 -3.5L 7.19447 3.5Z"/>
<path id="path10_fill" d="M 16.3075 8.1635C 16.3075 12.6721 12.6569 16.327 8.15373 16.327C 3.65055 16.327 0 12.6721 0 8.1635C 0 3.65492 3.65055 0 8.15373 0C 12.6569 0 16.3075 3.65492 16.3075 8.1635Z"/>
<path id="path11_stroke_2x" d="M 12.8075 8.1635C 12.8075 10.743 10.72 12.827 8.15373 12.827L 8.15373 19.827C 14.5939 19.827 19.8075 14.6011 19.8075 8.1635L 12.8075 8.1635ZM 8.15373 12.827C 5.5875 12.827 3.5 10.743 3.5 8.1635L -3.5 8.1635C -3.5 14.6011 1.7136 19.827 8.15373 19.827L 8.15373 12.827ZM 3.5 8.1635C 3.5 5.58397 5.5875 3.5 8.15373 3.5L 8.15373 -3.5C 1.7136 -3.5 -3.5 1.72588 -3.5 8.1635L 3.5 8.1635ZM 8.15373 3.5C 10.72 3.5 12.8075 5.58397 12.8075 8.1635L 19.8075 8.1635C 19.8075 1.72588 14.5939 -3.5 8.15373 -3.5L 8.15373 3.5Z"/>
<path id="path12_fill" d="M 20.1445 10.0843C 20.1445 15.6537 15.635 20.1686 10.0723 20.1686C 4.5095 20.1686 0 15.6537 0 10.0843C 0 4.5149 4.5095 0 10.0723 0C 15.635 0 20.1445 4.5149 20.1445 10.0843Z"/>
<path id="path13_stroke_2x" d="M 16.6445 10.0843C 16.6445 13.7247 13.6981 16.6686 10.0723 16.6686L 10.0723 23.6686C 17.572 23.6686 23.6445 17.5828 23.6445 10.0843L 16.6445 10.0843ZM 10.0723 16.6686C 6.44645 16.6686 3.5 13.7247 3.5 10.0843L -3.5 10.0843C -3.5 17.5828 2.57255 23.6686 10.0723 23.6686L 10.0723 16.6686ZM 3.5 10.0843C 3.5 6.44395 6.44645 3.5 10.0723 3.5L 10.0723 -3.5C 2.57255 -3.5 -3.5 2.58586 -3.5 10.0843L 3.5 10.0843ZM 10.0723 3.5C 13.6981 3.5 16.6445 6.44395 16.6445 10.0843L 23.6445 10.0843C 23.6445 2.58586 17.572 -3.5 10.0723 -3.5L 10.0723 3.5Z"/>
</defs>
</svg>
