<svg width="111" height="98" viewBox="0 0 111 98" version="1.1" xmlns="http://www.w3.org/2000/svg" xmlns:xlink="http://www.w3.org/1999/xlink">
<title>Group 11</title>
<desc>Created using Figma</desc>
<g id="Canvas" transform="translate(7685 -1518)">
<g id="Group 11">
<g id="Vector 4">
<use xlink:href="#path0_stroke" transform="translate(-7639.17 1560.55)" fill="#3A28B2"/>
</g>
<g id="Vector 5">
<use xlink:href="#path1_stroke" transform="translate(-7645.86 1579.7)" fill="#3A28B2"/>
</g>
<g id="Vector 6">
<use xlink:href="#path2_stroke" transform="translate(-7605.29 1575.71)" fill="#3A28B2"/>
</g>
<g id="Vector 7">
<use xlink:href="#path3_stroke" transform="translate(-7621.44 1596.05)" fill="#3A28B2"/>
</g>
<g id="Vector 8">
<use xlink:href="#path4_stroke" transform="translate(-7589.93 1605.22)" fill="#3A28B2"/>
</g>
<g id="Vector 8.1">
<use xlink:href="#path5_stroke" transform="matrix(-1 0 0 1 -7632.08 1605.22)" fill="#3A28B2"/>
</g>
<g id="Vector 9">
<use xlink:href="#path6_stroke" transform="translate(-7639.56 1592.75)" fill="#3A28B2"/>
</g>
<g id="Vector 9.1">
<use xlink:href="#path6_stroke" transform="matrix(-1 0 0 1 -7582.39 1592.75)" fill="#3A28B2"/>
</g>
<g id="Vector 10">
<use xlink:href="#path7_stroke" transform="translate(-7615.14 1567.33)" fill="#3A28B2"/>
</g>
<g id="Vector 4.1">
<use xlink:href="#path8_stroke" transform="translate(-7676.3 1543.85)" fill="#3A28B2"/>
</g>
<g id="Vector 5.1">
<use xlink:href="#path9_stroke" transform="translate(-7683 1562.99)" fill="#3A28B2"/>
</g>
<g id="Vector 5.3">
<use xlink:href="#path10_stroke" transform="translate(-7642.56 1540.09)" fill="#3A28B2"/>
</g>
<g id="Vector 7.1">
<use xlink:href="#path11_stroke" transform="translate(-7658.24 1579.76)" fill="#3A28B2"/>
</g>
<g id="Vector 7.5">
<use xlink:href="#path12_stroke" transform="matrix(1 -2.47862e-16 2.42031e-16 1 -7621.93 1554.7)" fill="#3A28B2"/>
</g>
<g id="Vector 7.2">
<use xlink:href="#path13_stroke" transform="translate(-7676.4 1579.76)" fill="#3A28B2"/>
</g>
<g id="Vector 8.3">
<use xlink:href="#path5_stroke" transform="matrix(-1 0 0 1 -7669.21 1588.52)" fill="#3A28B2"/>
</g>
<g id="Vector 10.1">
<use xlink:href="#path7_stroke" transform="translate(-7653.93 1550.63)" fill="#3A28B2"/>
</g>
<g id="Vector 4.2">
<use xlink:href="#path14_stroke" transform="matrix(-1 0 0 1 -7583.65 1520.46)" fill="#3A28B2"/>
</g>
<g id="Vector 5.2">
<use xlink:href="#path15_stroke" transform="matrix(-1 0 0 1 -7576.95 1539.61)" fill="#3A28B2"/>
</g>
<g id="Vector 7.4">
<use xlink:href="#path16_stroke" transform="matrix(-1 0 0 1 -7583.56 1554.7)" fill="#3A28B2"/>
</g>
<g id="Vector 8.4">
<use xlink:href="#path17_stroke" transform="translate(-7583.65 1565.14)" fill="#3A28B2"/>
</g>
<g id="Vector 10.2">
<use xlink:href="#path18_stroke" transform="matrix(-2.74758e-16 -1 1 -1.22816e-16 -7627.83 1530.21)" fill="#3A28B2"/>
</g>
<g id="Vector 10.3">
<use xlink:href="#path18_stroke" transform="matrix(-2.5248e-16 -1 1 -1.33652e-16 -7594.93 1530.21)" fill="#3A28B2"/>
</g>
<g id="Vector 10.4">
<use xlink:href="#path18_stroke" transform="matrix(-2.5248e-16 -1 1 -1.33652e-16 -7603.35 1530.21)" fill="#3A28B2"/>
</g>
<g id="Vector 10.5">
<use xlink:href="#path18_stroke" transform="matrix(-2.5248e-16 -1 1 -1.33652e-16 -7611.76 1530.21)" fill="#3A28B2"/>
</g>
<g id="Vector 10.6">
<use xlink:href="#path18_stroke" transform="matrix(-2.5248e-16 -1 1 -1.33652e-16 -7619.42 1530.21)" fill="#3A28B2"/>
</g>
</g>
</g>
<defs>
<path id="path0_stroke" d="M 1.96939 11.8205L 3.64387 12.329L 3.64792 12.3157L 3.65175 12.3023L 1.96939 11.8205ZM 58.8624 19.1013C 58.8624 18.1348 58.0789 17.3513 57.1124 17.3513C 56.1459 17.3513 55.3624 18.1348 55.3624 19.1013L 58.8624 19.1013ZM -1.6432 18.4993C -1.97567 19.4068 -1.50952 20.412 -0.602003 20.7445C 0.305509 21.077 1.31072 20.6108 1.6432 19.7033L -1.6432 18.4993ZM 3.65175 12.3023C 4.6329 8.87636 5.46673 6.09572 6.44027 4.15781C 7.43158 2.17025 8.17565 1.84026 8.66532 1.84026L 8.66532 -1.65974C 6.00397 -1.65974 4.38477 0.437206 3.30822 2.59568C 2.2139 4.80379 1.27527 7.88826 0.287031 11.3386L 3.65175 12.3023ZM 8.66532 1.84026C 11.8164 1.84026 37.8123 1.84026 42.9327 1.84026L 42.9327 -1.65974C 37.8123 -1.65974 11.8164 -1.65974 8.66532 -1.65974L 8.66532 1.84026ZM 42.9327 1.84026C 44.2769 1.83909 45.3236 1.76273 46.14 1.75159C 46.9321 1.73842 47.2835 1.74327 47.6344 1.91125C 48.0685 2.08958 48.7473 2.64375 49.9542 5.9489L 53.2419 4.74837C 52.0855 1.58167 50.9919 -0.49335 48.9643 -1.32625C 48.0843 -1.66388 47.0325 -1.76014 46.0891 -1.74804C 45.17 -1.7339 44.1488 -1.65857 42.9327 -1.65974L 42.9327 1.84026ZM 49.9542 5.9489C 51.1424 9.2023 52.5317 12.7693 53.619 15.4594C 54.1638 16.8073 54.6403 17.9531 54.9781 18.7307C 55.1496 19.1252 55.2995 19.4558 55.4028 19.666C 55.4624 19.7861 55.5517 19.9487 55.6182 20.0522C 55.6478 20.0959 55.7181 20.1902 55.7651 20.2468C 55.794 20.2804 55.9969 20.5271 56.3503 20.6955C 56.5488 20.7901 56.9546 20.9362 57.4649 20.8296C 58.028 20.712 58.3941 20.3576 58.5885 20.0507C 58.8816 19.5879 58.8624 19.1277 58.8624 19.1013L 55.3624 19.1013C 55.3624 19.0876 55.3416 18.636 55.6317 18.178C 55.8245 17.8735 56.1887 17.5206 56.7495 17.4035C 57.2576 17.2974 57.6608 17.4429 57.8562 17.5361C 58.2036 17.7017 58.399 17.9416 58.4189 17.9649C 58.4804 18.0364 58.5202 18.0954 58.5346 18.117C 58.5797 18.1851 58.5883 18.212 58.5419 18.1179C 58.4637 17.9599 58.3489 17.706 58.1881 17.3357C 57.8613 16.5838 57.4022 15.4796 56.8639 14.1478C 55.7849 11.4784 54.417 7.96681 53.2419 4.74837L 49.9542 5.9489ZM 1.6432 19.7033C 1.83401 19.1825 2.06809 18.1731 2.35152 17.0374C 2.65761 15.8109 3.0645 14.2354 3.64387 12.329L 0.294911 11.3119C -0.305022 13.2887 -0.734642 14.9491 -1.04432 16.1899C -1.37667 17.5216 -1.53763 18.2112 -1.6432 18.4993L 1.6432 19.7033Z"/>
<path id="path1_stroke" d="M 6.6581 0L 8.06724 -1.03771L 6.6581 -2.95122L 5.24897 -1.03771L 6.6581 0ZM 1.56661 6.38207L 0.317916 5.15599L 1.56661 6.38207ZM 0 25.5283L -1.75 25.5283L -1.75 27.2783L 0 27.2783L 0 25.5283ZM 69.3226 25.5283L 69.3226 27.2783L 71.0726 27.2783L 71.0726 25.5283L 69.3226 25.5283ZM 68.1476 6.38207L 66.7385 7.41977L 68.1476 6.38207ZM 63.8394 0L 65.3036 -0.958449L 64.3289 -2.44757L 62.8564 -1.44782L 63.8394 0ZM 5.24897 -1.03771C 4.05046 0.589791 1.46586 3.98687 0.317916 5.15599L 2.81531 7.60814C 4.17395 6.22443 6.91583 2.60124 8.06724 1.03771L 5.24897 -1.03771ZM 0.317916 5.15599C -0.667062 6.20057 -1.29117 7.5971 -1.53595 9.17161C -1.74544 10.6435 -1.75 12.5647 -1.75 15.1574L 1.75 15.1574C 1.75 12.5647 1.74544 10.896 1.9276 9.67543C 2.07448 8.5575 2.23367 8.15908 2.81531 7.60814L 0.317916 5.15599ZM -1.75 15.1574C -1.75 19.3057 -1.75 23.7998 -1.75 25.5283L 1.75 25.5283C 1.75 23.7998 1.75 19.3057 1.75 15.1574L -1.75 15.1574ZM 0 27.2783L 69.3226 27.2783L 69.3226 23.7783L 0 23.7783L 0 27.2783ZM 71.0726 25.5283C 71.0726 23.5339 71.0726 18.6675 71.0726 15.1574L 67.5726 15.1574C 67.5726 18.6675 67.5726 23.5339 67.5726 25.5283L 71.0726 25.5283ZM 71.0726 15.1574C 71.0726 12.9636 71.0704 11.0801 70.9168 9.54583C 70.7602 8.0042 70.4262 6.52498 69.5568 5.34436L 66.7385 7.41977C 67.044 7.83467 67.2975 8.54929 67.4347 9.89952C 67.5748 11.2572 67.5726 12.9636 67.5726 15.1574L 71.0726 15.1574ZM 69.5568 5.34436C 68.6423 4.10347 66.3456 0.633272 65.3036 -0.958449L 62.3753 0.958449C 63.4221 2.55776 65.773 6.10784 66.7385 7.41977L 69.5568 5.34436ZM 62.8564 -1.44782C 62.7216 -1.35626 62.1607 -1.08364 60.8929 -0.742577C 59.6478 -0.406738 57.9617 -0.0626776 55.6458 0.261365C 50.9624 0.919265 44.0343 1.44227 34.0738 1.44103L 34.0738 4.94103C 44.166 4.93979 51.3374 4.39912 56.132 3.72743C 58.555 3.38667 60.4527 2.99945 61.8022 2.63725C 63.1291 2.28028 64.174 1.8881 64.8225 1.44782L 62.8564 -1.44782ZM 34.0738 1.44103C 24.1172 1.44242 17.5945 0.92125 13.4104 0.265426C 11.3551 -0.054689 9.97579 -0.385641 9.00898 -0.711782C 8.55413 -0.862928 8.29474 -0.972846 8.07484 -1.09474C 7.86059 -1.21129 7.93859 -1.2124 8.06724 -1.03771L 5.24897 1.03771C 5.57344 1.47832 6.02841 1.77637 6.40225 1.97975C 6.77044 2.17779 7.31026 2.40858 7.89575 2.60646C 9.00959 2.97836 10.6754 3.37868 12.8695 3.72337C 17.1843 4.39714 23.9778 4.93964 34.0738 4.94103L 34.0738 1.44103Z"/>
<path id="path2_stroke" d="M -1.73682 6.56656C -1.85522 7.52578 -1.1736 8.39937 -0.214381 8.51776C 0.744838 8.63616 1.61842 7.95454 1.73682 6.99533L -1.73682 6.56656ZM 6.69593 2.0546e-20L 6.69593 1.75L 6.69593 2.0546e-20ZM 11.2513 6.09099C 11.3108 7.05565 12.1411 7.7894 13.1058 7.72986C 14.0704 7.67033 14.8042 6.84005 14.7447 5.87539L 11.2513 6.09099ZM 1.73682 6.99533C 1.88898 5.76259 1.96759 4.52511 2.58572 3.48984C 3.07456 2.6711 4.05955 1.75 6.69593 1.75L 6.69593 -1.75C 3.03026 -1.75 0.798573 -0.344304 -0.419385 1.69559C -1.50806 3.51895 -1.62639 5.67195 -1.73682 6.56656L 1.73682 6.99533ZM 6.69593 1.75C 8.5089 1.75 9.55002 2.45692 10.1952 3.27637C 10.9721 4.20409 11.2046 5.19755 11.2513 6.09099L 14.7447 5.87539C 14.6601 4.64147 14.1048 2.64333 12.9452 1.1113C 11.6538 -0.528999 9.6095 -1.75 6.69593 -1.75L 6.69593 1.75Z"/>
<path id="path3_stroke" d="M 0 -1.75C -0.966498 -1.75 -1.75 -0.966498 -1.75 0C -1.75 0.966498 -0.966498 1.75 0 1.75L 0 -1.75ZM 20.8756 1.75C 21.8421 1.75 22.6256 0.966498 22.6256 0C 22.6256 -0.966498 21.8421 -1.75 20.8756 -1.75L 20.8756 1.75ZM 0 1.75L 20.8756 1.75L 20.8756 -1.75L 0 -1.75L 0 1.75Z"/>
<path id="path4_stroke" d="M 1.75 6.90682e-05C 1.75004 -0.966429 0.966567 -1.74996 6.90682e-05 -1.75C -0.966429 -1.75004 -1.74996 -0.966567 -1.75 -6.90682e-05L 1.75 6.90682e-05ZM 15.142 2.92979e-06C 15.142 -0.966495 14.3585 -1.75 13.392 -1.75C 12.4255 -1.75 11.642 -0.966501 11.642 -2.92979e-06L 15.142 2.92979e-06ZM -1.75 -6.90682e-05C -1.75006 1.53746 -1.75611 4.12684 -0.716132 6.33104C -0.197578 7.40354 0.759163 8.5889 1.9454 9.34603C 3.21555 10.1225 4.79431 10.5253 6.69606 10.5253L 6.69606 7.02534C 5.28924 7.02534 4.37669 6.73014 3.77094 6.35983C 3.08129 5.97018 2.77757 5.56003 2.44924 4.83757C 1.79544 3.45186 1.74993 1.65357 1.75 6.90682e-05L -1.75 -6.90682e-05ZM 6.69606 10.5253C 8.57582 10.5253 10.1426 10.1567 11.4098 9.42407C 12.6012 8.70364 13.5735 7.55363 14.0999 6.4979C 15.1519 4.32989 15.142 1.71763 15.142 2.92979e-06L 11.642 -2.92979e-06C 11.642 1.87228 11.5927 3.64769 10.951 4.96988C 10.6305 5.65924 10.3425 6.02996 9.65805 6.39398C 9.0494 6.74585 8.12489 7.02534 6.69606 7.02534L 6.69606 10.5253Z"/>
<path id="path5_stroke" d="M 1.75 6.78773e-05C 1.75004 -0.96643 0.966566 -1.74996 6.78773e-05 -1.75C -0.96643 -1.75004 -1.74996 -0.966566 -1.75 -6.78773e-05L 1.75 6.78773e-05ZM 15.5358 2.92979e-06C 15.5358 -0.966495 14.7523 -1.75 13.7858 -1.75C 12.8193 -1.75 12.0358 -0.966501 12.0358 -2.92979e-06L 15.5358 2.92979e-06ZM -1.75 -6.78773e-05C -1.75006 1.61904 -1.64617 4.19491 -0.484959 6.39978C 0.777329 8.79657 3.16288 10.5253 7.08982 10.5253L 7.08982 7.02534C 4.3996 7.02534 3.24018 5.96196 2.61182 4.76884C 1.88237 3.38379 1.74994 1.572 1.75 6.78773e-05L -1.75 -6.78773e-05ZM 7.08982 10.5253C 8.96957 10.5253 10.5363 10.1567 11.8035 9.42407C 12.9949 8.70364 13.9673 7.55363 14.4936 6.4979C 15.5457 4.32989 15.5357 1.71763 15.5358 2.92979e-06L 12.0358 -2.92979e-06C 12.0357 1.87228 11.9864 3.64769 11.3448 4.96987C 11.0243 5.65924 10.7363 6.02996 10.0518 6.39398C 9.44316 6.74585 8.51865 7.02534 7.08982 7.02534L 7.08982 10.5253Z"/>
<path id="path6_stroke" d="M 11.4225 1.30723L 11.7087 -0.419222L 11.7024 -0.42024L 11.4225 1.30723ZM 11.7024 -0.42024C 9.25526 -0.816686 7.30418 -1.16677 5.75081 -1.40697C 4.18156 -1.64909 2.87434 -1.78845 1.91142 -1.73584C 0.839514 -1.67005 -0.329963 -1.33502 -1.06465 -0.211394C -1.67706 0.725203 -1.75 1.90426 -1.75 2.90275L 1.75 2.90275C 1.74571 2.02807 1.99291 1.58466 1.86472 1.70401C 1.73315 1.90522 1.57299 1.79152 2.12583 1.75759C 2.78767 1.71048 3.72062 1.82042 5.21624 2.05197C 6.72773 2.28543 8.66621 2.63339 11.1426 3.0347L 11.7024 -0.42024ZM -1.75 2.90275C -1.75 4.95499 -1.37712 6.85943 0.391079 7.75477C 1.12948 8.12867 1.93142 8.21355 2.58489 8.24113C 3.24422 8.26761 3.97041 8.24241 4.72654 8.24269L 4.72654 4.74269C 3.90715 4.74298 3.25477 4.76763 2.73246 4.74424C 2.2043 4.72196 2.02155 4.65725 1.97219 4.63226C 1.91301 4.61031 1.96962 4.6103 1.99033 4.64909C 2.03814 4.69311 1.97494 4.65805 1.93335 4.5303C 1.84523 4.29603 1.75 3.81802 1.75 2.90275L -1.75 2.90275ZM 4.72654 8.24269C 7.87757 8.24269 9.45308 8.24269 11.4225 8.24269L 11.4225 4.74269C 9.45308 4.74269 7.87757 4.74269 4.72654 4.74269L 4.72654 8.24269ZM 11.4225 8.24269C 12.7317 8.24269 13.6106 7.42037 14.081 6.64666C 14.4737 5.96528 14.7535 4.9281 14.7959 4.11589C 14.818 3.30686 14.6179 2.22383 14.2462 1.46981C 13.7861 0.592699 12.9552 -0.212581 11.7087 -0.419211L 11.1363 3.03367C 11.1714 3.03568 11.1431 3.04207 11.1183 3.02718C 11.0956 3.02117 11.1131 3.03262 11.0912 3.01117C 11.0817 3.00358 11.1071 3.02024 11.1467 3.09564C 11.2353 3.26465 11.3143 3.57911 11.2986 3.97785C 11.2828 4.37866 11.1784 4.68351 11.0903 4.82845C 11.0068 4.9658 11.0979 4.74269 11.4225 4.74269L 11.4225 8.24269Z"/>
<path id="path7_stroke" d="M 0 -1.75C -0.966498 -1.75 -1.75 -0.966498 -1.75 0C -1.75 0.966498 -0.966498 1.75 0 1.75L 0 -1.75ZM 7.48369 1.75C 8.45019 1.75 9.23369 0.966498 9.23369 0C 9.23369 -0.966498 8.45019 -1.75 7.48369 -1.75L 7.48369 1.75ZM 0 1.75L 7.48369 1.75L 7.48369 -1.75L 0 -1.75L 0 1.75Z"/>
<path id="path8_stroke" d="M 1.96939 11.8205L 3.64387 12.329L 3.64792 12.3157L 3.65175 12.3023L 1.96939 11.8205ZM 57.3619 16.2855C 57.3619 15.319 56.5784 14.5355 55.6119 14.5355C 54.6454 14.5355 53.8619 15.319 53.8619 16.2855L 57.3619 16.2855ZM -1.6432 18.4993C -1.97567 19.4068 -1.50952 20.412 -0.602003 20.7445C 0.305509 21.077 1.31072 20.6108 1.6432 19.7033L -1.6432 18.4993ZM 3.65175 12.3023C 4.6329 8.87636 5.46673 6.09572 6.44027 4.15781C 7.43158 2.17025 8.17565 1.84026 8.66532 1.84026L 8.66532 -1.65974C 6.00397 -1.65974 4.38477 0.437206 3.30822 2.59568C 2.2139 4.80379 1.27527 7.88826 0.287031 11.3386L 3.65175 12.3023ZM 8.66532 1.84026C 11.8164 1.84026 37.8123 1.84026 42.9327 1.84026L 42.9327 -1.65974C 37.8123 -1.65974 11.8164 -1.65974 8.66532 -1.65974L 8.66532 1.84026ZM 42.9327 1.84026C 44.2769 1.83909 45.3236 1.76273 46.14 1.75159C 46.9321 1.73842 47.2835 1.74327 47.6344 1.91125C 48.0685 2.08958 48.7473 2.64375 49.9542 5.9489L 53.2419 4.74837C 52.0855 1.58167 50.9919 -0.493351 48.9643 -1.32625C 48.0843 -1.66388 47.0325 -1.76014 46.0891 -1.74804C 45.17 -1.7339 44.1488 -1.65857 42.9327 -1.65974L 42.9327 1.84026ZM 49.9542 5.9489C 51.1329 9.17662 52.1346 12.007 52.8438 13.986C 53.1989 14.9769 53.4855 15.7675 53.6827 16.2829C 53.7844 16.5485 53.8813 16.7869 53.9492 16.9345C 53.9546 16.946 54.0651 17.2034 54.2547 17.4283C 54.3025 17.485 54.4768 17.6908 54.774 17.8502C 55.1297 18.0409 55.929 18.2669 56.6724 17.6964C 57.1935 17.2966 57.3025 16.7579 57.3221 16.6659C 57.3431 16.5499 57.3605 16.3617 57.3619 16.2855L 53.8619 16.2855C 53.8619 16.236 53.8634 16.103 53.8992 15.9353C 53.9172 15.8508 54.0238 15.3171 54.5417 14.9197C 55.282 14.3517 56.0773 14.5776 56.4282 14.7658C 56.7206 14.9226 56.8894 15.1234 56.9308 15.1725C 57.0951 15.3674 57.1678 15.5553 57.1234 15.4598C 57.0919 15.3932 57.0413 15.267 56.9514 15.0318C 56.7653 14.5456 56.4916 13.7902 56.1386 12.8053C 55.4317 10.8328 54.4265 7.99249 53.2419 4.74837L 49.9542 5.9489ZM 1.6432 19.7033C 1.83401 19.1825 2.06809 18.1731 2.35152 17.0374C 2.65761 15.8109 3.0645 14.2354 3.64387 12.329L 0.294911 11.3119C -0.305022 13.2887 -0.734642 14.9491 -1.04432 16.1899C -1.37667 17.5216 -1.53763 18.2112 -1.6432 18.4993L 1.6432 19.7033Z"/>
<path id="path9_stroke" d="M 6.6581 0L 8.06724 -1.03771L 6.6581 -2.95122L 5.24896 -1.03771L 6.6581 0ZM 1.56661 6.38207L 0.317916 5.15599L 1.56661 6.38207ZM 0 25.5283L -1.75 25.5283L -1.75 27.2783L 0 27.2783L 0 25.5283ZM 33.0108 4.73543C 33.9773 4.73543 34.7608 3.95193 34.7608 2.98543C 34.7608 2.01893 33.9773 1.23543 33.0108 1.23543L 33.0108 4.73543ZM 37.1372 27.2783C 38.1037 27.2783 38.8872 26.4948 38.8872 25.5283C 38.8872 24.5618 38.1037 23.7783 37.1372 23.7783L 37.1372 27.2783ZM 15.6801 2.75991L 15.8729 1.02056L 15.6801 2.75991ZM 5.24896 -1.03771C 4.05046 0.589791 1.46585 3.98687 0.317916 5.15599L 2.81531 7.60814C 4.17395 6.22443 6.91583 2.60124 8.06724 1.03771L 5.24896 -1.03771ZM 0.317916 5.15599C -0.667062 6.20057 -1.29117 7.5971 -1.53595 9.17161C -1.74544 10.6435 -1.75 12.5647 -1.75 15.1574L 1.75 15.1574C 1.75 12.5647 1.74544 10.896 1.9276 9.67543C 2.07448 8.5575 2.23367 8.15908 2.81531 7.60814L 0.317916 5.15599ZM -1.75 15.1574C -1.75 19.3057 -1.75 23.7998 -1.75 25.5283L 1.75 25.5283C 1.75 23.7998 1.75 19.3057 1.75 15.1574L -1.75 15.1574ZM 0 27.2783L 37.1372 27.2783L 37.1372 23.7783L 0 23.7783L 0 27.2783ZM 33.0108 1.23543C 28.9179 1.23591 21.1275 1.60825 15.8729 1.02056L 15.4874 4.49927C 21.0169 5.1065 29.0004 4.73494 33.0108 4.73543L 33.0108 1.23543ZM 15.8729 1.02056C 13.1999 0.728786 11.245 0.223404 9.81718 -0.295014C 9.13029 -0.541849 8.66393 -0.755075 8.29448 -0.960104C 7.86961 -1.19426 7.91779 -1.24065 8.06724 -1.03771L 5.24896 1.03771C 5.59779 1.51138 6.17456 1.86791 6.60514 2.10521C 7.09113 2.37163 7.80709 2.69839 8.62701 2.99641C 10.2128 3.56772 12.5696 4.17156 15.4874 4.49927L 15.8729 1.02056Z"/>
<path id="path10_stroke" d="M 3.88506 1.03771C 4.45817 0.259462 4.29187 -0.836027 3.51363 -1.40914C 2.73539 -1.98225 1.6399 -1.81595 1.06679 -1.03771L 3.88506 1.03771ZM -1.49958 2.85611C -1.99779 3.68431 -1.73028 4.75957 -0.90208 5.25777C -0.0738832 5.75598 1.00138 5.48847 1.49958 4.66027L -1.49958 2.85611ZM 1.06679 -1.03771C 0.452703 -0.202816 -0.198952 0.78533 -0.678031 1.53627C -0.919231 1.91444 -1.12575 2.24613 -1.26815 2.47716C -1.34014 2.59398 -1.39821 2.68904 -1.43691 2.75267C -1.45663 2.78509 -1.47235 2.81102 -1.48254 2.82788C -1.48782 2.8366 -1.49209 2.84367 -1.49477 2.84811C -1.49619 2.85048 -1.4974 2.85248 -1.49812 2.85367C -1.49852 2.85434 -1.49889 2.85495 -1.49909 2.85528C -1.49921 2.85549 -1.49933 2.85569 -1.4994 2.8558C -1.49944 2.85586 -1.49948 2.85594 -1.4995 2.85598C -1.49955 2.85605 -1.49958 2.85611 0 3.75819C 1.49958 4.66027 1.49956 4.66032 1.49953 4.66035C 1.49953 4.66035 1.49952 4.66038 1.49951 4.66039C 1.4995 4.66042 1.49953 4.66036 1.49956 4.66031C 1.49968 4.66011 1.49978 4.65994 1.50001 4.65956C 1.50055 4.65866 1.50123 4.65754 1.5023 4.65576C 1.50462 4.65192 1.5078 4.64666 1.51234 4.63915C 1.52177 4.62354 1.53516 4.60145 1.5533 4.57163C 1.59034 4.51075 1.64308 4.42439 1.71141 4.31352C 1.84967 4.0892 2.04182 3.78049 2.27274 3.41855C 2.73788 2.68928 3.32418 1.79833 3.88506 1.03771L 1.06679 -1.03771Z"/>
<path id="path11_stroke" d="M 0 -1.75C -0.966498 -1.75 -1.75 -0.966498 -1.75 0C -1.75 0.966498 -0.966498 1.75 0 1.75L 0 -1.75ZM 18.156 1.75C 19.1224 1.75 19.906 0.966498 19.906 0C 19.906 -0.966498 19.1224 -1.75 18.156 -1.75L 18.156 1.75ZM 0 1.75L 18.156 1.75L 18.156 -1.75L 0 -1.75L 0 1.75Z"/>
<path id="path12_stroke" d="M 0 -1.75C -0.966498 -1.75 -1.75 -0.966498 -1.75 0C -1.75 0.966498 -0.966498 1.75 0 1.75L 0 -1.75ZM 24.7581 1.75C 25.7246 1.75 26.5081 0.966498 26.5081 0C 26.5081 -0.966498 25.7246 -1.75 24.7581 -1.75L 24.7581 1.75ZM 0 1.75L 24.7581 1.75L 24.7581 -1.75L 0 -1.75L 0 1.75Z"/>
<path id="path13_stroke" d="M 0 -1.75C -0.966498 -1.75 -1.75 -0.966498 -1.75 0C -1.75 0.966498 -0.966498 1.75 0 1.75L 0 -1.75ZM 10.7285 1.75C 11.695 1.75 12.4785 0.966498 12.4785 0C 12.4785 -0.966498 11.695 -1.75 10.7285 -1.75L 10.7285 1.75ZM 0 1.75L 10.7285 1.75L 10.7285 -1.75L 0 -1.75L 0 1.75Z"/>
<path id="path14_stroke" d="M 1.96939 11.8205L 3.64387 12.329L 3.64792 12.3157L 3.65175 12.3023L 1.96939 11.8205ZM 55.7025 21.6721C 56.1406 22.5336 57.1942 22.8768 58.0557 22.4387C 58.9172 22.0006 59.2604 20.9471 58.8223 20.0856L 55.7025 21.6721ZM -1.6432 18.4993C -1.97567 19.4068 -1.50952 20.412 -0.602003 20.7445C 0.305509 21.077 1.31072 20.6108 1.6432 19.7033L -1.6432 18.4993ZM 3.65175 12.3023C 4.6329 8.87636 5.46673 6.09572 6.44027 4.15781C 7.43158 2.17025 8.17565 1.84026 8.66532 1.84026L 8.66532 -1.65974C 6.00397 -1.65974 4.38477 0.437207 3.30822 2.59568C 2.2139 4.80379 1.27527 7.88826 0.287031 11.3387L 3.65175 12.3023ZM 8.66532 1.84026C 11.8164 1.84026 37.8123 1.84026 42.9327 1.84026L 42.9327 -1.65974C 37.8123 -1.65974 11.8164 -1.65974 8.66532 -1.65974L 8.66532 1.84026ZM 42.9327 1.84026C 44.2769 1.83909 45.3236 1.76273 46.14 1.75159C 46.9321 1.73842 47.2835 1.74327 47.6344 1.91125C 48.0685 2.08958 48.7473 2.64375 49.9542 5.9489L 53.2419 4.74837C 52.0855 1.58167 50.9919 -0.493351 48.9643 -1.32625C 48.0843 -1.66388 47.0325 -1.76014 46.0891 -1.74804C 45.17 -1.7339 44.1488 -1.65857 42.9327 -1.65974L 42.9327 1.84026ZM 49.9542 5.9489C 52.2904 12.3406 53.6792 17.6707 55.7025 21.6721L 58.8223 20.0856C 56.9524 16.4314 55.6323 11.3004 53.2419 4.74837L 49.9542 5.9489ZM 1.6432 19.7033C 1.83401 19.1825 2.06809 18.1731 2.35152 17.0374C 2.65761 15.8109 3.0645 14.2354 3.64387 12.329L 0.294912 11.3119C -0.305022 13.2887 -0.734642 14.9491 -1.04432 16.19C -1.37667 17.5216 -1.53763 18.2112 -1.6432 18.4993L 1.6432 19.7033Z"/>
<path id="path15_stroke" d="M 6.6581 0L 8.06724 -1.03771L 6.6581 -2.95122L 5.24897 -1.03771L 6.6581 0ZM 1.56661 6.38207L 0.317916 5.15599L 1.56661 6.38207ZM 0 25.5283L -1.75 25.5283L -1.75 27.2783L 0 27.2783L 0 25.5283ZM 33.0108 4.73543C 33.9773 4.73543 34.7608 3.95193 34.7608 2.98543C 34.7608 2.01893 33.9773 1.23543 33.0108 1.23543L 33.0108 4.73543ZM 10.7285 27.2783C 11.695 27.2783 12.4785 26.4948 12.4785 25.5283C 12.4785 24.5618 11.695 23.7783 10.7285 23.7783L 10.7285 27.2783ZM 15.6801 2.75991L 15.8729 1.02056L 15.6801 2.75991ZM 5.24897 -1.03771C 4.05046 0.589791 1.46586 3.98687 0.317916 5.15599L 2.81531 7.60814C 4.17395 6.22443 6.91583 2.60124 8.06724 1.03771L 5.24897 -1.03771ZM 0.317916 5.15599C -0.667062 6.20057 -1.29117 7.5971 -1.53595 9.17161C -1.74544 10.6435 -1.75 12.5647 -1.75 15.1574L 1.75 15.1574C 1.75 12.5647 1.74544 10.896 1.9276 9.67543C 2.07448 8.5575 2.23367 8.15908 2.81531 7.60814L 0.317916 5.15599ZM -1.75 15.1574C -1.75 19.3057 -1.75 23.7998 -1.75 25.5283L 1.75 25.5283C 1.75 23.7998 1.75 19.3057 1.75 15.1574L -1.75 15.1574ZM 0 27.2783L 10.7285 27.2783L 10.7285 23.7783L 0 23.7783L 0 27.2783ZM 33.0108 1.23543C 28.9179 1.23591 21.1275 1.60825 15.8729 1.02056L 15.4874 4.49927C 21.0169 5.1065 29.0004 4.73494 33.0108 4.73543L 33.0108 1.23543ZM 15.8729 1.02056C 13.1999 0.728786 11.245 0.223404 9.81718 -0.295014C 9.13029 -0.541849 8.66394 -0.755075 8.29448 -0.960104C 7.86961 -1.19426 7.91779 -1.24065 8.06724 -1.03771L 5.24897 1.03771C 5.59779 1.51138 6.17456 1.86791 6.60514 2.10521C 7.09113 2.37163 7.80709 2.69839 8.62702 2.99641C 10.2128 3.56772 12.5696 4.17156 15.4874 4.49927L 15.8729 1.02056Z"/>
<path id="path16_stroke" d="M 0 -1.75C -0.966498 -1.75 -1.75 -0.966498 -1.75 0C -1.75 0.966498 -0.966498 1.75 0 1.75L 0 -1.75ZM 7.0148 1.75C 7.9813 1.75 8.7648 0.966498 8.7648 0C 8.7648 -0.966498 7.9813 -1.75 7.0148 -1.75L 7.0148 1.75ZM 0 1.75L 7.0148 1.75L 7.0148 -1.75L 0 -1.75L 0 1.75Z"/>
<path id="path17_stroke" d="M 0 7.02534C -0.966498 7.02534 -1.75 7.80884 -1.75 8.77534C -1.75 9.74184 -0.966498 10.5253 0 10.5253L 0 7.02534ZM 8.44593 2.92979e-06C 8.44593 -0.966495 7.66243 -1.75 6.69593 -1.75C 5.72943 -1.75 4.94593 -0.966501 4.94593 -2.92979e-06L 8.44593 2.92979e-06ZM 0 10.5253C 1.87975 10.5253 3.44652 10.1567 4.71372 9.42407C 5.90509 8.70364 6.87748 7.55363 7.40381 6.4979C 8.45587 4.32989 8.44593 1.71763 8.44593 2.92979e-06L 4.94593 -2.92979e-06C 4.94593 1.87228 4.89659 3.64769 4.25498 4.96987C 3.93448 5.65924 3.64645 6.02996 2.96198 6.39398C 2.35334 6.74585 1.42883 7.02534 0 7.02534L 0 10.5253Z"/>
<path id="path18_stroke" d="M 0 -1.75C -0.966498 -1.75 -1.75 -0.966498 -1.75 0C -1.75 0.966498 -0.966498 1.75 0 1.75L 0 -1.75ZM 3.89738 1.75C 4.86388 1.75 5.64738 0.966498 5.64738 0C 5.64738 -0.966498 4.86388 -1.75 3.89738 -1.75L 3.89738 1.75ZM 0 1.75L 3.89738 1.75L 3.89738 -1.75L 0 -1.75L 0 1.75Z"/>
</defs>
</svg>
