<svg width="95" height="89" viewBox="0 0 95 89" version="1.1" xmlns="http://www.w3.org/2000/svg" xmlns:xlink="http://www.w3.org/1999/xlink">
<title>Group 12</title>
<desc>Created using Figma</desc>
<g id="Canvas" transform="translate(6903 -1524)">
<g id="Group 12">
<g id="Rectangle 11">
<use xlink:href="#path0_fill" transform="matrix(0.71149 -0.702696 0.71149 0.702696 -6867.1 1574.4)" fill="#FFFFFF"/>
<mask id="mask0_outline_ins">
<use xlink:href="#path0_fill" fill="white" transform="matrix(0.71149 -0.702696 0.71149 0.702696 -6867.1 1574.4)"/>
</mask>
<g mask="url(#mask0_outline_ins)">
<use xlink:href="#path1_stroke_2x" transform="matrix(0.71149 -0.702696 0.71149 0.702696 -6867.1 1574.4)" fill="#3A28B2"/>
</g>
</g>
<g id="Vector 4">
<use xlink:href="#path2_stroke" transform="translate(-6858.15 1568.36)" fill="#3A28B2"/>
</g>
<g id="Vector 7">
<use xlink:href="#path3_fill" transform="translate(-6880.47 1572.23)" fill="#FFFFFF"/>
</g>
<g id="Rectangle 12">
<use xlink:href="#path4_fill" transform="matrix(0.71149 0.702696 -0.71149 0.702696 -6874.58 1561.64)" fill="#FFFFFF"/>
<mask id="mask1_outline_ins">
<use xlink:href="#path4_fill" fill="white" transform="matrix(0.71149 0.702696 -0.71149 0.702696 -6874.58 1561.64)"/>
</mask>
<g mask="url(#mask1_outline_ins)">
<use xlink:href="#path5_stroke_2x" transform="matrix(0.71149 0.702696 -0.71149 0.702696 -6874.58 1561.64)" fill="#3A28B2"/>
</g>
</g>
<g id="Vector 5">
<use xlink:href="#path6_stroke" transform="translate(-6901 1569.4)" fill="#3A28B2"/>
</g>
<g id="Vector 6">
<use xlink:href="#path7_stroke" transform="translate(-6886.38 1586.46)" fill="#3A28B2"/>
</g>
<g id="Vector 6.1">
<use xlink:href="#path7_stroke" transform="translate(-6875.42 1597.84)" fill="#3A28B2"/>
</g>
</g>
</g>
<defs>
<path id="path0_fill" d="M 0.0758137 0L 68.8482 0C 71.94 0 74.4465 2.50647 74.4465 5.59835C 74.4465 8.69023 71.94 11.1967 68.8482 11.1967L 0.0758137 11.1967L 0.0758137 0Z"/>
<path id="path1_stroke_2x" d="M 1.82577 0.0119299C 1.83236 -0.954546 1.05422 -1.74337 0.0877436 -1.74996C -0.878732 -1.75655 -1.66756 -0.978406 -1.67415 -0.0119299L 1.82577 0.0119299ZM -1.74996 11.1089C -1.75655 12.0754 -0.978406 12.8642 -0.0119299 12.8708C 0.954546 12.8774 1.74337 12.0993 1.74996 11.1328L -1.74996 11.1089ZM -1.67415 -0.0119299L -1.74996 11.1089L 1.74996 11.1328L 1.82577 0.0119299L -1.67415 -0.0119299ZM 0.0758137 0L 0.0758137 -3.5C -1.85718 -3.5 -3.42419 -1.933 -3.42419 7.77156e-16L 0.0758137 0ZM 0.0758137 11.1967L -3.42419 11.1967C -3.42419 13.1297 -1.85718 14.6967 0.0758137 14.6967L 0.0758137 11.1967ZM 0.0758137 3.5L 68.8482 3.5L 68.8482 -3.5L 0.0758137 -3.5L 0.0758137 3.5ZM 68.8482 7.69669L 0.0758137 7.69669L 0.0758137 14.6967L 68.8482 14.6967L 68.8482 7.69669ZM 3.57581 11.1967L 3.57581 0L -3.42419 0L -3.42419 11.1967L 3.57581 11.1967ZM 70.9465 5.59835C 70.9465 6.75723 70.007 7.69669 68.8482 7.69669L 68.8482 14.6967C 73.873 14.6967 77.9465 10.6232 77.9465 5.59835L 70.9465 5.59835ZM 68.8482 3.5C 70.007 3.5 70.9465 4.43946 70.9465 5.59835L 77.9465 5.59835C 77.9465 0.57347 73.873 -3.5 68.8482 -3.5L 68.8482 3.5Z"/>
<path id="path2_stroke" d="M -1.22972 1.24511L 4.52949 6.93313L 6.98893 4.44292L 1.22972 -1.24511L -1.22972 1.24511Z"/>
<path id="path3_fill" d="M 10.7773 39.0503L 0 0L 25.1471 23.6357L 10.7773 39.0503Z"/>
<path id="path4_fill" d="M 0 7C 0 3.13401 3.13401 0 7 0L 32.3482 0C 36.2142 0 39.3482 3.13401 39.3482 7L 39.3482 12.1625L 0 12.1625L 0 7Z"/>
<path id="path5_stroke_2x" d="M 39.3482 12.1625L 39.3482 15.6625L 42.8482 15.6625L 42.8482 12.1625L 39.3482 12.1625ZM 0 12.1625L -3.5 12.1625L -3.5 15.6625L 0 15.6625L 0 12.1625ZM 7 3.5L 32.3482 3.5L 32.3482 -3.5L 7 -3.5L 7 3.5ZM 35.8482 7L 35.8482 12.1625L 42.8482 12.1625L 42.8482 7L 35.8482 7ZM 39.3482 8.66249L 0 8.66249L 0 15.6625L 39.3482 15.6625L 39.3482 8.66249ZM 3.5 12.1625L 3.5 7L -3.5 7L -3.5 12.1625L 3.5 12.1625ZM 32.3482 3.5C 34.2812 3.5 35.8482 5.067 35.8482 7L 42.8482 7C 42.8482 1.20101 38.1472 -3.5 32.3482 -3.5L 32.3482 3.5ZM 7 -3.5C 1.20101 -3.5 -3.5 1.20101 -3.5 7L 3.5 7C 3.5 5.067 5.067 3.5 7 3.5L 7 -3.5Z"/>
<path id="path6_stroke" d="M 2.57885 6.19047L 2.21798 4.47809L 2.57885 6.19047ZM 30.5987 40.6055L 29.3416 41.8229L 30.5987 40.6055ZM 32.0539 40.5859L 33.3433 41.7691L 32.0539 40.5859ZM 20.2446 -1.32408C 18.4481 0.228426 15.8721 1.30775 12.6814 2.18961C 9.49501 3.07234 5.89269 3.70394 2.21798 4.47809L 2.93972 7.90286C 6.55669 7.14038 10.2651 6.48656 13.6137 5.56313C 16.958 4.63882 20.1411 3.39123 22.5331 1.32408L 20.2446 -1.32408ZM 2.21798 4.47809C 0.939724 4.74746 -0.366245 5.20314 -1.13312 6.19829C -2.07744 7.42371 -1.77448 8.79293 -1.30604 9.74742C -0.851353 10.6739 -0.0632789 11.6262 0.793629 12.5533C 1.6687 13.4992 2.75311 14.5626 3.92873 15.7237L 6.38815 13.2335C 5.20771 12.0677 4.17943 11.0607 3.3638 10.1775C 2.53 9.27549 2.04937 8.64023 1.83596 8.20539C 1.63631 7.79859 1.87178 8.03288 1.63922 8.33468C 1.56917 8.50389 1.91602 8.10595 2.93972 7.90286L 2.21798 4.47809ZM 7.04325 18.7986L 29.3416 41.8229L 31.8558 39.388L 9.55744 16.3637L 7.04325 18.7986ZM 33.3433 41.7691L 47.8097 26.0036L 45.2308 23.6373L 30.7644 39.4027L 33.3433 41.7691ZM 29.3416 41.8229C 30.4425 42.9597 32.2734 42.935 33.3433 41.7691L 30.7644 39.4027C 31.0562 39.0847 31.5556 39.078 31.8558 39.388L 29.3416 41.8229Z"/>
<path id="path7_stroke" d="M 3.96535 -1.24239L -1.23246 3.9139L 1.23246 6.39868L 6.43028 1.24239L 3.96535 -1.24239Z"/>
</defs>
</svg>
