<svg width="82" height="67" viewBox="0 0 82 67" version="1.1" xmlns="http://www.w3.org/2000/svg" xmlns:xlink="http://www.w3.org/1999/xlink">
<title>Group 5</title>
<desc>Created using Figma</desc>
<g id="Canvas" transform="translate(7083 -2865)">
<g id="Group 5">
<g id="Vector 4">
<use xlink:href="#path0_stroke" transform="translate(-7081 2867)" fill="#FFFFFF"/>
</g>
<g id="Vector 5">
<use xlink:href="#path1_stroke" transform="translate(-7048.55 2905.68)" fill="#FFFFFF"/>
</g>
</g>
</g>
<defs>
<path id="path0_stroke" d="M 25.6364 55.6315C 26.6029 55.6315 27.3864 54.848 27.3864 53.8815C 27.3864 52.915 26.6029 52.1315 25.6364 52.1315L 25.6364 55.6315ZM 18.2727 18.5131L 18.2727 20.2631C 19.0665 20.2631 19.7608 19.7289 19.9643 18.9617L 18.2727 18.5131ZM 61.6364 22.1052L 59.8893 22.0038C 59.8617 22.4796 60.0293 22.9461 60.3535 23.2955C 60.6776 23.6449 61.1303 23.8469 61.6068 23.855L 61.6364 22.1052ZM 54 52.1315C 53.0335 52.1315 52.25 52.915 52.25 53.8815C 52.25 54.848 53.0335 55.6315 54 55.6315L 54 52.1315ZM 40.231 10.0344C 41.1948 10.1077 42.0354 9.38578 42.1086 8.42206C 42.1818 7.45834 41.4599 6.61772 40.4962 6.54449L 40.231 10.0344ZM 25.8149 19.9111C 25.6713 20.8669 26.3297 21.7581 27.2855 21.9016C 28.2413 22.0452 29.1325 21.3867 29.276 20.431L 25.8149 19.9111ZM 25.6364 52.1315C 23.8182 52.1315 18.8727 52.1315 13.6364 52.1315L 13.6364 55.6315C 18.8727 55.6315 23.8182 55.6315 25.6364 55.6315L 25.6364 52.1315ZM 13.6364 52.1315C 8.2744 52.1315 1.75 46.5157 1.75 36.75L -1.75 36.75C -1.75 47.9841 5.90742 55.6315 13.6364 55.6315L 13.6364 52.1315ZM 1.75 36.75C 1.75 27.2466 9.11791 20.2631 18.2727 20.2631L 18.2727 16.7631C 7.24573 16.7631 -1.75 25.2533 -1.75 36.75L 1.75 36.75ZM 19.9643 18.9617C 20.7399 16.0134 22.6341 11.7689 26.0566 8.13652C 29.4005 4.55396 34.0758 1.75 40.3636 1.75L 40.3636 -1.75C 32.906 -1.75 27.354 1.61708 23.498 5.74833C 19.7204 9.82972 17.4419 14.8418 16.5812 18.0646L 19.9643 18.9617ZM 40.3636 1.75C 48.2445 1.75 53.1261 5.69477 56.0774 10.2436C 59.097 14.8977 60.0022 20.0587 59.8893 22.0038L 63.3834 22.2067C 63.5432 19.4544 62.403 13.5628 59.0135 8.33861C 55.5558 3.00916 49.6646 -1.75 40.3636 -1.75L 40.3636 1.75ZM 61.6068 23.855C 64.0664 23.8965 67.7917 24.6835 70.8506 26.8549C 73.8224 28.9645 76.25 32.4285 76.25 38.1315L 79.75 38.1315C 79.75 31.2346 76.7231 26.7315 72.8766 24.0009C 69.1174 21.3323 64.6609 20.4061 61.6659 20.3555L 61.6068 23.855ZM 76.25 38.1315C 76.25 45.3891 73.2407 48.7151 70.1239 50.3664C 66.8052 52.1832 63.1364 52.1315 61.6364 52.1315L 61.6364 55.6315C 63.1364 55.6315 67.6494 55.5798 71.7625 53.4591C 76.0775 51.173 79.75 46.624 79.75 38.1315L 76.25 38.1315ZM 61.6364 52.1315C 59.2364 52.1315 55.5455 52.1315 54 52.1315L 54 55.6315C 55.5455 55.6315 59.2364 55.6315 61.6364 55.6315L 61.6364 52.1315ZM 40.4962 6.54449C 38.3342 6.38021 35.1079 6.88232 32.182 8.86469C 29.1935 10.8895 26.6466 14.3736 25.8149 19.9111L 29.276 20.431C 29.9716 15.8 32.0155 13.2052 34.1452 11.7623C 36.3376 10.2769 38.7567 9.9224 40.231 10.0344L 40.4962 6.54449Z"/>
<path id="path1_stroke" d="M 9.11364 0C 9.11364 -0.966498 8.33013 -1.75 7.36364 -1.75C 6.39714 -1.75 5.61364 -0.966498 5.61364 0L 9.11364 0ZM 7.36364 24.3158L 6.42248 25.7911C 6.97951 26.1465 7.68919 26.1578 8.25727 25.8204L 7.36364 24.3158ZM 16.1664 21.123C 16.9973 20.6295 17.2709 19.5557 16.7774 18.7248C 16.2838 17.8938 15.2101 17.6202 14.3791 18.1138L 16.1664 21.123ZM 0.941159 18.143C 0.126334 17.6232 -0.955583 17.8624 -1.47537 18.6772C -1.99516 19.4921 -1.75598 20.574 -0.941159 21.0938L 0.941159 18.143ZM 5.61364 0L 5.61364 24.3158L 9.11364 24.3158L 9.11364 0L 5.61364 0ZM 14.3791 18.1138L 6.47001 22.8111L 8.25727 25.8204L 16.1664 21.123L 14.3791 18.1138ZM -0.941159 21.0938L 6.42248 25.7911L 8.3048 22.8404L 0.941159 18.143L -0.941159 21.0938Z"/>
</defs>
</svg>
