<svg width="109" height="56" viewBox="0 0 109 56" version="1.1" xmlns="http://www.w3.org/2000/svg" xmlns:xlink="http://www.w3.org/1999/xlink">
<title>Group 13</title>
<desc>Created using Figma</desc>
<g id="Canvas" transform="translate(6511 -1557)">
<g id="Group 13">
<g id="Vector 5">
<use xlink:href="#path0_fill" transform="translate(-6509 1596.21)" fill="#FFFFFF"/>
<use xlink:href="#path1_stroke" transform="translate(-6509 1596.21)" fill="#3A28B2"/>
</g>
<g id="Vector 4">
<use xlink:href="#path2_fill" transform="translate(-6508.57 1559.38)" fill="#FFFFFF"/>
<use xlink:href="#path3_stroke" transform="translate(-6508.57 1559.38)" fill="#3A28B2"/>
</g>
<g id="Vector 6">
<use xlink:href="#path4_stroke" transform="translate(-6508.57 1575.65)" fill="#3A28B2"/>
</g>
<g id="Vector 7">
<use xlink:href="#path5_stroke" transform="translate(-6463.76 1564.52)" fill="#3A28B2"/>
</g>
<g id="Vector 7.1">
<use xlink:href="#path5_stroke" transform="translate(-6457.3 1569.23)" fill="#3A28B2"/>
</g>
<g id="Vector 7.2">
<use xlink:href="#path5_stroke" transform="translate(-6449.98 1573.94)" fill="#3A28B2"/>
</g>
<g id="Vector 7.3">
<use xlink:href="#path5_stroke" transform="translate(-6442.22 1578.22)" fill="#3A28B2"/>
</g>
</g>
</g>
<defs>
<path id="path0_fill" d="M 0 6.42275C 0 0.942003 2.58503 0 2.58503 0C 25.4955 0.856367 77.7335 2.5691 103.401 2.5691C 101.678 11.9891 84.4445 14.5582 77.9819 14.5582L 9.9093 14.5582C 3.87755 14.5582 0 13.2737 0 6.42275Z"/>
<path id="path1_stroke" d="M 2.58503 0L 2.6504 -1.74878C 2.42421 -1.75723 2.19853 -1.72173 1.98587 -1.64423L 2.58503 0ZM 103.401 2.5691L 105.123 2.88403C 105.216 2.37326 105.078 1.84736 104.746 1.44853C 104.413 1.04969 103.921 0.819101 103.401 0.819101L 103.401 2.5691ZM 2.58503 0C 1.98587 -1.64423 1.98435 -1.64368 1.98283 -1.64312C 1.98231 -1.64293 1.98077 -1.64237 1.97973 -1.64198C 1.97864 -1.64158 1.9755 -1.64042 1.97333 -1.63961C 1.97099 -1.63874 1.96444 -1.63627 1.95977 -1.6345C 1.95445 -1.63246 1.94029 -1.62697 1.92964 -1.62275C 1.91645 -1.61746 1.88407 -1.60409 1.85783 -1.59278C 1.82177 -1.57698 1.74179 -1.53976 1.67168 -1.50408C 1.56493 -1.44848 1.35392 -1.32489 1.16068 -1.18886C 0.843638 -0.958207 0.307586 -0.466732 -0.139791 0.150613C -1.03433 1.42489 -1.75 3.40227 -1.75 6.42275L 1.75 6.42275C 1.75 3.96248 2.32685 2.72849 2.72482 2.16158C 2.92371 1.85833 3.03391 1.77176 3.20157 1.65451C 3.25067 1.61659 3.31086 1.58912 3.27624 1.60645C 3.27567 1.60723 3.25597 1.61594 3.25417 1.61662C 3.26148 1.61354 3.22219 1.62987 3.22559 1.62849C 3.23135 1.62621 3.20372 1.63699 3.20655 1.6359C 3.20999 1.6346 3.19409 1.6406 3.1958 1.63996C 3.19766 1.63927 3.18918 1.64241 3.19011 1.64207C 3.18914 1.64242 3.18766 1.64297 3.18718 1.64314C 3.1857 1.64369 3.1842 1.64423 2.58503 0ZM -1.75 6.42275C -1.75 10.181 -0.667149 12.8834 1.70548 14.5045C 3.90691 16.0087 6.8707 16.3082 9.9093 16.3082L 9.9093 12.8082C 6.91615 12.8082 4.92529 12.4655 3.68001 11.6147C 2.60592 10.8808 1.75 9.51547 1.75 6.42275L -1.75 6.42275ZM 9.9093 16.3082L 77.9819 16.3082L 77.9819 12.8082L 9.9093 12.8082L 9.9093 16.3082ZM 77.9819 16.3082C 81.3076 16.3057 87.5165 15.6244 93.0341 13.7524C 98.4197 11.9142 104.072 8.62984 105.123 2.88403L 101.68 2.25417C 101.008 5.9284 97.1812 8.63863 91.9035 10.44C 86.7579 12.2076 81.1187 12.8108 77.9819 12.8082L 77.9819 16.3082ZM 2.51967 1.74878C 25.4342 2.60529 77.7048 4.31887 103.401 4.3191L 103.401 0.819101C 77.7622 0.819336 25.5569 -0.892557 2.6504 -1.74878L 2.51967 1.74878Z"/>
<path id="path2_fill" d="M 0 29.3929L 0 0L 6.03175 0C 19.4739 18.4975 32.0257 7.7073 36.6213 0L 43.9456 0C 57.8889 16.1669 81.7881 23.7369 96.8672 26.401C 101.027 27.1359 104.263 30.6467 104.263 34.8706C 104.263 37.3682 102.238 39.3929 99.7408 39.3929L 10 39.3929C 4.47715 39.3929 0 34.9157 0 29.3929Z"/>
<path id="path3_stroke" d="M 0 0L 0 -1.75C -0.966498 -1.75 -1.75 -0.966498 -1.75 3.88578e-16L 0 0ZM 96.8672 26.401L 97.1717 24.6777L 96.8672 26.401ZM 43.9456 0L 45.2708 -1.14294C 44.9384 -1.52839 44.4546 -1.75 43.9456 -1.75L 43.9456 0ZM 36.6213 0L 36.6213 -1.75C 36.0049 -1.75 35.4339 -1.42569 35.1182 -0.89624L 36.6213 0ZM 6.03175 0L 7.44742 -1.02877C 7.11814 -1.48188 6.59187 -1.75 6.03175 -1.75L 6.03175 0ZM -1.75 0L -1.75 29.3929L 1.75 29.3929L 1.75 0L -1.75 0ZM 10 41.1429L 99.7408 41.1429L 99.7408 37.6429L 10 37.6429L 10 41.1429ZM 97.1717 24.6777C 82.2098 22.0343 58.8113 14.5569 45.2708 -1.14294L 42.6204 1.14294C 56.9665 17.7769 81.3664 25.4395 96.5628 28.1243L 97.1717 24.6777ZM 43.9456 -1.75L 36.6213 -1.75L 36.6213 1.75L 43.9456 1.75L 43.9456 -1.75ZM 35.1182 -0.89624C 32.9342 2.7666 28.9689 6.94119 24.2194 8.12911C 19.7462 9.24791 13.906 7.85869 7.44742 -1.02877L 4.61607 1.02877C 11.5997 10.6388 18.7565 13.1033 25.0686 11.5245C 31.1044 10.0149 35.7128 4.9407 38.1244 0.89624L 35.1182 -0.89624ZM 6.03175 -1.75L 0 -1.75L 0 1.75L 6.03175 1.75L 6.03175 -1.75ZM 106.013 34.8706C 106.013 29.7142 102.082 25.5453 97.1717 24.6777L 96.5628 28.1243C 99.9712 28.7265 102.513 31.5792 102.513 34.8706L 106.013 34.8706ZM 99.7408 41.1429C 103.205 41.1429 106.013 38.3347 106.013 34.8706L 102.513 34.8706C 102.513 36.4017 101.272 37.6429 99.7408 37.6429L 99.7408 41.1429ZM -1.75 29.3929C -1.75 35.8822 3.51065 41.1429 10 41.1429L 10 37.6429C 5.44365 37.6429 1.75 33.9492 1.75 29.3929L -1.75 29.3929Z"/>
<path id="path4_stroke" d="M 0 -1.75C -0.966498 -1.75 -1.75 -0.966498 -1.75 0C -1.75 0.966498 -0.966498 1.75 0 1.75L 0 -1.75ZM 4.30839 0L 5.8402 -0.846208C 5.53216 -1.40382 4.94543 -1.75 4.30839 -1.75L 4.30839 0ZM 37.0522 0L 38.2188 -1.30436C 37.5129 -1.93577 36.4328 -1.891 35.7815 -1.20332L 37.0522 0ZM 83.0459 7.51932C 83.4151 6.62609 82.9902 5.60274 82.097 5.2336C 81.2037 4.86447 80.1804 5.28933 79.8112 6.18255L 83.0459 7.51932ZM 0 1.75L 4.30839 1.75L 4.30839 -1.75L 0 -1.75L 0 1.75ZM 2.77658 0.846208C 4.935 4.75338 9.33365 9.56666 15.597 10.9875C 22.0088 12.4421 29.783 10.221 38.3228 1.20332L 35.7815 -1.20332C 27.7771 7.24891 21.19 8.66739 16.3713 7.57424C 11.4041 6.44741 7.70295 2.52574 5.8402 -0.846208L 2.77658 0.846208ZM 35.8855 1.30436C 41.7031 6.50446 51.1199 13.2086 60.0335 16.1364C 64.5332 17.6036 69.1463 18.1966 73.2559 16.9983C 77.464 15.7712 80.8881 12.7408 83.0459 7.51932L 79.8112 6.18255C 78.0054 10.5524 75.3367 12.7458 72.2761 13.6382C 69.1171 14.5594 65.2857 14.1676 61.1185 12.8088C 52.6979 10.0845 43.8902 3.77195 38.2188 -1.30436L 35.8855 1.30436Z"/>
<path id="path5_stroke" d="M 4.85896 1.03346C 5.42973 0.253497 5.26014 -0.841487 4.48017 -1.41225C 3.70021 -1.98302 2.60523 -1.81343 2.03446 -1.03346L 4.85896 1.03346ZM -1.41225 3.67656C -1.98302 4.45652 -1.81343 5.55151 -1.03346 6.12227C -0.253497 6.69304 0.841487 6.52345 1.41225 5.74348L -1.41225 3.67656ZM 2.03446 -1.03346L -1.41225 3.67656L 1.41225 5.74348L 4.85896 1.03346L 2.03446 -1.03346Z"/>
</defs>
</svg>
