<svg width="33" height="30" viewBox="0 0 33 30" version="1.1" xmlns="http://www.w3.org/2000/svg" xmlns:xlink="http://www.w3.org/1999/xlink">
<title>Linked In</title>
<desc>Created using Figma</desc>
<g id="Canvas" transform="translate(6314 -4747)">
<g id="Linked In">
<g id="Shape">
<use xlink:href="#path0_fill" transform="translate(-6313.96 4747)" fill="#FFFFFF"/>
</g>
</g>
</g>
<defs>
<path id="path0_fill" fill-rule="evenodd" d="M 30.5289 29.7335L 2.43723 29.7335C 1.09073 29.7335 0 28.7799 0 27.6004L 0 2.13148C 0 0.955207 1.09073 0 2.43723 0L 30.5289 0C 31.8737 0 32.9644 0.955207 32.9644 2.13148L 32.9644 27.6004C 32.9644 28.7799 31.8737 29.7335 30.5289 29.7335ZM 5.7124 24.8352L 10.5671 24.8352L 10.5671 11.4111L 5.7124 11.4111L 5.7124 24.8352ZM 8.17304 4.94141C 6.51137 4.94141 5.42725 5.94281 5.42725 7.26096C 5.42725 8.54777 6.48002 9.58051 8.10869 9.58051L 8.14004 9.58051C 9.83306 9.58051 10.8858 8.54777 10.8858 7.26096C 10.8561 5.94281 9.83306 4.94141 8.17304 4.94141ZM 28.0725 17.1392C 28.0725 13.0132 25.6765 11.0962 22.4835 11.0962C 19.906 11.0962 18.7542 12.3978 18.109 13.3135L 18.109 11.4113L 13.2544 11.4113C 13.3187 12.6717 13.2544 24.8353 13.2544 24.8353L 18.109 24.8353L 18.109 17.3389C 18.109 16.9396 18.1404 16.5371 18.2691 16.2517C 18.6189 15.4482 19.4192 14.6184 20.7591 14.6184C 22.5165 14.6184 23.2178 15.8508 23.2178 17.6556L 23.2178 24.8353L 28.0725 24.8353L 28.0725 17.1392ZM 18.0757 13.3575C 18.0856 13.3427 18.0988 13.3278 18.1087 13.313L 18.1087 13.3575L 18.0757 13.3575Z"/>
</defs>
</svg>
