<svg width="18" height="17" viewBox="0 0 18 17" version="1.1" xmlns="http://www.w3.org/2000/svg" xmlns:xlink="http://www.w3.org/1999/xlink">
<title>Shape</title>
<desc>Created using Figma</desc>
<g id="Canvas" transform="translate(7791 -4356)">
<g id="Shape">
<use xlink:href="#path0_fill" transform="translate(-7791 4357)" fill="#1B1B28" fill-opacity="0.5"/>
</g>
</g>
<defs>
<path id="path0_fill" fill-rule="evenodd" d="M 17.528 14.5029C 17.213 14.8369 16.835 15.0039 16.393 15.0039L 1.607 15.0039C 1.165 15.0039 0.787 14.8369 0.472 14.5029C 0.157 14.1689 0 13.7669 0 13.2989L 0 4.83789C 0.295 5.18589 0.633 5.49489 1.014 5.76489C 3.439 7.51189 5.103 8.73789 6.007 9.44089C 6.388 9.73989 6.698 9.97189 6.936 10.1389C 7.173 10.3059 7.49 10.4769 7.885 10.6509C 8.28 10.8249 8.648 10.9119 8.99 10.9119L 9 10.9119L 9.01 10.9119C 9.352 10.9119 9.72 10.8249 10.115 10.6509C 10.51 10.4769 10.826 10.3059 11.064 10.1389C 11.302 9.97189 11.612 9.73989 11.993 9.44089C 13.131 8.56689 14.799 7.34189 16.995 5.76489C 17.377 5.48789 17.712 5.17889 18 4.83789L 18 13.2989C 18 13.7669 17.843 14.1689 17.528 14.5029ZM 16.282 4.624C 13.765 6.479 12.197 7.633 11.582 8.088C 11.515 8.137 11.372 8.246 11.155 8.413C 10.937 8.58 10.756 8.715 10.612 8.818C 10.468 8.921 10.294 9.036 10.09 9.164C 9.886 9.292 9.693 9.388 9.512 9.452C 9.332 9.516 9.164 9.548 9.01 9.548L 9 9.548L 8.99 9.548C 8.836 9.548 8.668 9.516 8.488 9.452C 8.307 9.388 8.114 9.292 7.91 9.164C 7.706 9.036 7.532 8.921 7.388 8.818C 7.244 8.715 7.063 8.58 6.845 8.413C 6.628 8.246 6.485 8.137 6.418 8.088C 5.809 7.633 4.932 6.985 3.787 6.143C 2.642 5.302 1.955 4.796 1.728 4.625C 1.312 4.326 0.921 3.916 0.552 3.394C 0.184 2.872 0 2.387 0 1.94C 0 1.385 0.139 0.924 0.417 0.554C 0.695 0.185 1.091 0 1.607 0L 16.393 0C 16.828 0 17.205 0.167 17.523 0.501C 17.841 0.835 18 1.236 18 1.705C 18 2.266 17.836 2.803 17.508 3.314C 17.18 3.825 16.771 4.263 16.282 4.624Z"/>
</defs>
</svg>
