<svg width="69" height="69" viewBox="0 0 69 69" version="1.1" xmlns="http://www.w3.org/2000/svg" xmlns:xlink="http://www.w3.org/1999/xlink">
<title>Group 3</title>
<desc>Created using Figma</desc>
<g id="Canvas" transform="translate(7599 -2863)">
<g id="Group 3">
<g id="Group 2">
<g id="Ellipse 2">
<mask id="mask0_outline_ins">
<use xlink:href="#path0_fill" fill="white" transform="translate(-7599 2863)"/>
</mask>
<g mask="url(#mask0_outline_ins)">
<use xlink:href="#path1_stroke_2x" transform="translate(-7599 2863)" fill="#FFFFFF"/>
</g>
</g>
<g id="Vector 4">
<use xlink:href="#path2_stroke" transform="translate(-7584.3 2872.67)" fill="#FFFFFF"/>
</g>
<g id="Vector 5">
<use xlink:href="#path3_stroke" transform="translate(-7591.47 2873.65)" fill="#FFFFFF"/>
</g>
<g id="Vector 6">
<use xlink:href="#path4_stroke" transform="translate(-7555.2 2873.84)" fill="#FFFFFF"/>
</g>
</g>
</g>
</g>
<defs>
<path id="path0_fill" d="M 34.5 69C 53.5538 69 69 53.5538 69 34.5C 69 15.4462 53.5538 0 34.5 0C 15.4462 0 0 15.4462 0 34.5C 0 41.8588 2.30392 48.6794 6.22978 54.28L 3.20777 62.5683C 2.3279 64.9815 4.69001 67.3124 7.0913 66.4005L 15.41 63.2416C 20.8768 66.8798 27.4408 69 34.5 69Z"/>
<path id="path1_stroke_2x" d="M 6.22978 54.28L 9.51802 55.4789C 9.90965 54.4048 9.752 53.2072 9.09578 52.271L 6.22978 54.28ZM 3.20777 62.5683L -0.0804721 61.3694L -0.0804725 61.3694L 3.20777 62.5683ZM 15.41 63.2416L 17.3491 60.3279C 16.4086 59.7019 15.2237 59.5684 14.1675 59.9695L 15.41 63.2416ZM 7.0913 66.4005L 5.84877 63.1285L 5.84877 63.1285L 7.0913 66.4005ZM 65.5 34.5C 65.5 51.6208 51.6208 65.5 34.5 65.5L 34.5 72.5C 55.4868 72.5 72.5 55.4868 72.5 34.5L 65.5 34.5ZM 3.5 34.5C 3.5 17.3792 17.3792 3.5 34.5 3.5L 34.5 -3.5C 13.5132 -3.5 -3.5 13.5132 -3.5 34.5L 3.5 34.5ZM 34.5 3.5C 51.6208 3.5 65.5 17.3792 65.5 34.5L 72.5 34.5C 72.5 13.5132 55.4868 -3.5 34.5 -3.5L 34.5 3.5ZM 9.09578 52.271C 5.42668 47.0988 3.45368 41.2912 3.5 34.5L -3.5 34.5C -3.45368 42.4263 -0.818844 50.26 3.36378 56.289L 9.09578 52.271ZM 2.94153 53.0811L -0.0804721 61.3694L 6.49602 63.7672L 9.51802 55.4789L 2.94153 53.0811ZM 34.5 65.5C 27.9853 65.5426 22.3986 63.728 17.3491 60.3279L 13.4709 66.1553C 19.355 70.0317 26.8963 72.4574 34.5 72.5L 34.5 65.5ZM 8.33383 69.6726L 16.6525 66.5136L 14.1675 59.9695L 5.84877 63.1285L 8.33383 69.6726ZM -0.0804725 61.3694C -1.98687 66.598 3.13103 71.6483 8.33383 69.6726L 5.84877 63.1285C 6.24898 62.9765 6.64267 63.365 6.49602 63.7672L -0.0804725 61.3694Z"/>
<path id="path2_stroke" d="M 21.5173 0C 21.5173 -0.966498 20.7338 -1.75 19.7673 -1.75C 18.8008 -1.75 18.0173 -0.966498 18.0173 0L 21.5173 0ZM 18.0173 49.6542C 18.0173 50.6207 18.8008 51.4042 19.7673 51.4042C 20.7338 51.4042 21.5173 50.6207 21.5173 49.6542L 18.0173 49.6542ZM 0 7.98612C -0.966498 7.98612 -1.75 8.76962 -1.75 9.73612C -1.75 10.7026 -0.966498 11.4861 0 11.4861L 0 7.98612ZM 39.339 11.4861C 40.3055 11.4861 41.089 10.7026 41.089 9.73612C 41.089 8.76962 40.3055 7.98612 39.339 7.98612L 39.339 11.4861ZM 18.0173 0L 18.0173 49.6542L 21.5173 49.6542L 21.5173 0L 18.0173 0ZM 0 11.4861L 39.339 11.4861L 39.339 7.98612L 0 7.98612L 0 11.4861Z"/>
<path id="path3_stroke" d="M 0 22.0061C -0.966498 22.0061 -1.75 22.7896 -1.75 23.7561C -1.75 24.7226 -0.966498 25.5061 0 25.5061L 0 22.0061ZM 50.2991 25.5061C 51.2656 25.5061 52.0491 24.7226 52.0491 23.7561C 52.0491 22.7896 51.2656 22.0061 50.2991 22.0061L 50.2991 25.5061ZM 5.08862 37.1945C 4.12212 37.1945 3.33862 37.978 3.33862 38.9445C 3.33862 39.911 4.12212 40.6945 5.08862 40.6945L 5.08862 37.1945ZM 45.2104 40.6945C 46.1769 40.6945 46.9604 39.911 46.9604 38.9445C 46.9604 37.978 46.1769 37.1945 45.2104 37.1945L 45.2104 40.6945ZM 19.3968 1.06197C 19.9833 0.293777 19.8361 -0.804429 19.0679 -1.39094C 18.2997 -1.97745 17.2015 -1.83017 16.615 -1.06197L 19.3968 1.06197ZM 16.4863 48.1856C 16.9657 49.0248 18.0347 49.3165 18.8739 48.8371C 19.7131 48.3577 20.0048 47.2887 19.5254 46.4495L 16.4863 48.1856ZM 0 25.5061L 50.2991 25.5061L 50.2991 22.0061L 0 22.0061L 0 25.5061ZM 5.08862 40.6945L 45.2104 40.6945L 45.2104 37.1945L 5.08862 37.1945L 5.08862 40.6945ZM 16.615 -1.06197C 11.1078 6.1511 3.71177 25.8229 16.4863 48.1856L 19.5254 46.4495C 7.56148 25.5059 14.5962 7.34965 19.3968 1.06197L 16.615 -1.06197Z"/>
<path id="path4_stroke" d="M 1.49858 -0.90374C 0.999462 -1.73138 -0.0760945 -1.99771 -0.90374 -1.49858C -1.73138 -0.999462 -1.99771 0.0760945 -1.49858 0.90374L 1.49858 -0.90374ZM -1.51143 46.6302C -1.99859 47.4649 -1.71683 48.5365 -0.882085 49.0237C -0.0473441 49.5109 1.02427 49.2291 1.51143 48.3943L -1.51143 46.6302ZM -1.49858 0.90374C 3.00245 8.36738 9.32638 28.0598 -1.51143 46.6302L 1.51143 48.3943C 13.2201 28.3318 6.39192 7.21041 1.49858 -0.90374L -1.49858 0.90374Z"/>
</defs>
</svg>
