<svg width="60" height="67" viewBox="0 0 60 67" version="1.1" xmlns="http://www.w3.org/2000/svg" xmlns:xlink="http://www.w3.org/1999/xlink">
<title>Group 6</title>
<desc>Created using Figma</desc>
<g id="Canvas" transform="translate(6826 -2869)">
<g id="Group 6">
<g id="Vector 4">
<use xlink:href="#path0_stroke" transform="translate(-6784.9 2871)" fill="#FFFFFF"/>
</g>
<g id="Vector 4.1">
<use xlink:href="#path0_stroke" transform="matrix(-1 0 0 1 -6807.1 2871)" fill="#FFFFFF"/>
</g>
<g id="Ellipse 2">
<mask id="mask0_outline_ins">
<use xlink:href="#path1_fill" fill="white" transform="translate(-6804.18 2884.9)"/>
</mask>
<g mask="url(#mask0_outline_ins)">
<use xlink:href="#path2_stroke_2x" transform="translate(-6804.18 2884.9)" fill="#FFFFFF"/>
</g>
</g>
<g id="Vector 5">
<use xlink:href="#path3_stroke" transform="translate(-6795.57 2900.11)" fill="#FFFFFF"/>
</g>
</g>
</g>
<defs>
<path id="path0_stroke" d="M 1.11326 8.30492C 0.367542 7.69008 -0.735405 7.79618 -1.35024 8.5419C -1.96508 9.28762 -1.85898 10.3906 -1.11326 11.0054L 1.11326 8.30492ZM -1.28896 34.8623C -1.94268 35.5741 -1.89555 36.6812 -1.18367 37.3349C -0.471801 37.9886 0.635235 37.9415 1.28896 37.2296L -1.28896 34.8623ZM 8.08912 -1.34034C 7.34887 -1.96175 6.24503 -1.86541 5.62362 -1.12516C 5.00221 -0.384912 5.09855 0.718931 5.8388 1.34034L 8.08912 -1.34034ZM 5.62308 44.5766C 5.00203 45.3171 5.0989 46.4209 5.83945 47.042C 6.58 47.663 7.6838 47.5662 8.30485 46.8256L 5.62308 44.5766ZM -1.11326 11.0054C 0.93258 12.6922 3.41887 15.9371 4.13767 20.0664C 4.83851 24.0926 3.90404 29.2074 -1.28896 34.8623L 1.28896 37.2296C 7.12983 30.8692 8.49407 24.6839 7.58581 19.4661C 6.6955 14.3515 3.66486 10.4087 1.11326 8.30492L -1.11326 11.0054ZM 5.8388 1.34034C 9.3193 4.26208 13.5627 9.96764 14.7964 17.4495C 16.0164 24.8475 14.3296 34.1948 5.62308 44.5766L 8.30485 46.8256C 17.592 35.7515 19.6539 25.3951 18.2498 16.88C 16.8595 8.44869 12.106 2.03166 8.08912 -1.34034L 5.8388 1.34034Z"/>
<path id="path1_fill" d="M 16.369 8.25518C 16.369 12.8144 12.7046 16.5104 8.18448 16.5104C 3.66432 16.5104 0 12.8144 0 8.25518C 0 3.69597 3.66432 0 8.18448 0C 12.7046 0 16.369 3.69597 16.369 8.25518Z"/>
<path id="path2_stroke_2x" d="M 12.869 8.25518C 12.869 10.9098 10.7433 13.0104 8.18448 13.0104L 8.18448 20.0104C 14.666 20.0104 19.869 14.7189 19.869 8.25518L 12.869 8.25518ZM 8.18448 13.0104C 5.62563 13.0104 3.5 10.9098 3.5 8.25518L -3.5 8.25518C -3.5 14.7189 1.703 20.0104 8.18448 20.0104L 8.18448 13.0104ZM 3.5 8.25518C 3.5 5.60052 5.62563 3.5 8.18448 3.5L 8.18448 -3.5C 1.703 -3.5 -3.5 1.79142 -3.5 8.25518L 3.5 8.25518ZM 8.18448 3.5C 10.7433 3.5 12.869 5.60052 12.869 8.25518L 19.869 8.25518C 19.869 1.79142 14.666 -3.5 8.18448 -3.5L 8.18448 3.5Z"/>
<path id="path3_stroke" d="M 1.75 0C 1.75 -0.966498 0.966498 -1.75 0 -1.75C -0.966498 -1.75 -1.75 -0.966498 -1.75 0L 1.75 0ZM -1.75 33.8897C -1.75 34.8562 -0.966498 35.6397 0 35.6397C 0.966498 35.6397 1.75 34.8562 1.75 33.8897L -1.75 33.8897ZM -1.75 0L -1.75 33.8897L 1.75 33.8897L 1.75 0L -1.75 0Z"/>
</defs>
</svg>
