<svg width="35" height="27" viewBox="0 0 35 27" version="1.1" xmlns="http://www.w3.org/2000/svg" xmlns:xlink="http://www.w3.org/1999/xlink">
<title>twitter</title>
<desc>Created using Figma</desc>
<g id="Canvas" transform="translate(6422 -4750)">
<g id="twitter">
<g id="Shape">
<use xlink:href="#path0_fill" transform="translate(-6422 4750.32)" fill="#FFFFFF"/>
</g>
</g>
</g>
<defs>
<path id="path0_fill" fill-rule="evenodd" d="M 34.6657 3.12628C 33.3902 3.65585 32.0189 4.0122 30.5817 4.17387C 32.0503 3.34735 33.1773 2.04239 33.7086 0.488327C 32.3341 1.25051 30.811 1.80483 29.1906 2.10508C 27.8953 0.808379 26.0455 0 24.001 0C 20.0737 0 16.8873 2.9844 16.8873 6.66335C 16.8873 7.18632 16.95 7.6961 17.0721 8.18112C 11.1614 7.90396 5.92063 5.25116 2.41247 1.22082C 1.80193 2.20572 1.45045 3.34735 1.45045 4.57146C 1.45045 6.88112 2.7062 8.92351 4.61538 10.1179C 3.44875 10.0816 2.35307 9.78303 1.3927 9.28316C 1.3927 9.31285 1.3927 9.3376 1.3927 9.36894C 1.3927 12.5959 3.84478 15.2899 7.09716 15.902C 6.50147 16.0537 5.87277 16.1329 5.22428 16.1329C 4.76554 16.1329 4.32001 16.0933 3.88603 16.0174C 4.7903 18.662 7.41729 20.5889 10.5294 20.645C 8.09548 22.43 5.02956 23.4958 1.69632 23.4958C 1.12208 23.4958 0.55609 23.4644 0 23.4034C 3.14678 25.2924 6.88595 26.3977 10.9023 26.3977C 23.9845 26.3977 31.1378 16.2418 31.1378 7.43708C 31.1378 7.14673 31.1295 6.86132 31.1163 6.57261C 32.5057 5.6339 33.7119 4.46093 34.6657 3.12628Z"/>
</defs>
</svg>
