<svg width="74" height="62" viewBox="0 0 74 62" version="1.1" xmlns="http://www.w3.org/2000/svg" xmlns:xlink="http://www.w3.org/1999/xlink">
<title>Group 4</title>
<desc>Created using Figma</desc>
<g id="Canvas" transform="translate(7339 -2869)">
<g id="Group 4">
<g id="Ellipse 2">
<mask id="mask0_outline_ins">
<use xlink:href="#path0_fill" fill="white" transform="translate(-7329.96 2888.78)"/>
</mask>
<g mask="url(#mask0_outline_ins)">
<use xlink:href="#path1_stroke_2x" transform="translate(-7329.96 2888.78)" fill="#FFFFFF"/>
</g>
</g>
<g id="Ellipse 3">
<mask id="mask1_outline_ins">
<use xlink:href="#path2_fill" fill="white" transform="translate(-7339 2910.31)"/>
</mask>
<g mask="url(#mask1_outline_ins)">
<use xlink:href="#path3_stroke_2x" transform="translate(-7339 2910.31)" fill="#FFFFFF"/>
</g>
</g>
<g id="Vector 4">
<use xlink:href="#path4_stroke" transform="translate(-7295.24 2871)" fill="#FFFFFF"/>
</g>
</g>
</g>
<defs>
<path id="path0_fill" d="M 25.1222 12.5926C 25.1222 19.5472 19.4984 25.1851 12.5611 25.1851C 5.62379 25.1851 0 19.5472 0 12.5926C 0 5.63788 5.62379 0 12.5611 0C 19.4984 0 25.1222 5.63788 25.1222 12.5926Z"/>
<path id="path1_stroke_2x" d="M 21.6222 12.5926C 21.6222 17.6225 17.5571 21.6851 12.5611 21.6851L 12.5611 28.6851C 21.4396 28.6851 28.6222 21.472 28.6222 12.5926L 21.6222 12.5926ZM 12.5611 21.6851C 7.56504 21.6851 3.5 17.6225 3.5 12.5926L -3.5 12.5926C -3.5 21.472 3.68253 28.6851 12.5611 28.6851L 12.5611 21.6851ZM 3.5 12.5926C 3.5 7.56261 7.56504 3.5 12.5611 3.5L 12.5611 -3.5C 3.68253 -3.5 -3.5 3.71315 -3.5 12.5926L 3.5 12.5926ZM 12.5611 3.5C 17.5571 3.5 21.6222 7.56261 21.6222 12.5926L 28.6222 12.5926C 28.6222 3.71315 21.4396 -3.5 12.5611 -3.5L 12.5611 3.5Z"/>
<path id="path2_fill" d="M 20.8333 0C 10.006 0 1.10777 8.20267 0.0958619 18.692C -0.0102042 19.7914 0.895431 20.6896 2 20.6896L 39.6665 20.6896C 40.7711 20.6896 41.6768 19.7914 41.5707 18.692C 40.5588 8.20267 31.6606 0 20.8333 0Z"/>
<path id="path3_stroke_2x" d="M 0.0958619 18.692L 3.57969 19.028L 3.57969 19.028L 0.0958619 18.692ZM 41.5707 18.692L 38.0869 19.028L 38.0869 19.028L 41.5707 18.692ZM 3.57969 19.028C 4.41826 10.3355 11.8065 3.5 20.8333 3.5L 20.8333 -3.5C 8.20542 -3.5 -2.20272 6.06983 -3.38796 18.3559L 3.57969 19.028ZM 20.8333 3.5C 29.8601 3.5 37.2483 10.3355 38.0869 19.028L 45.0545 18.3559C 43.8693 6.06983 33.4611 -3.5 20.8333 -3.5L 20.8333 3.5ZM 2 24.1896L 39.6665 24.1896L 39.6665 17.1896L 2 17.1896L 2 24.1896ZM -3.38796 18.3559C -3.71406 21.7361 -0.937923 24.1896 2 24.1896L 2 17.1896C 2.72878 17.1896 3.69365 17.8467 3.57969 19.028L -3.38796 18.3559ZM 38.0869 19.028C 37.9729 17.8467 38.9378 17.1896 39.6665 17.1896L 39.6665 24.1896C 42.6045 24.1896 45.3806 21.7361 45.0545 18.3559L 38.0869 19.028Z"/>
<path id="path4_stroke" d="M 1.23898 17.5295C 0.556424 16.8452 -0.551614 16.8438 -1.23589 17.5264C -1.92016 18.209 -1.92155 19.317 -1.23898 20.0013L 1.23898 17.5295ZM -1.38691 33.0068C -1.97633 33.7727 -1.8332 34.8715 -1.06723 35.4609C -0.301258 36.0503 0.797498 35.9072 1.38691 35.1412L -1.38691 33.0068ZM 9.7279 9.75616C 8.9796 9.14448 7.87711 9.25523 7.26542 10.0035C 6.65374 10.7518 6.76449 11.8543 7.51279 12.466L 9.7279 9.75616ZM 7.33647 40.2922C 6.6797 41.0013 6.7221 42.1085 7.43116 42.7653C 8.14022 43.422 9.24745 43.3796 9.90422 42.6706L 7.33647 40.2922ZM 17.8231 -1.34509C 17.0803 -1.96336 15.9768 -1.86235 15.3586 -1.11948C 14.7403 -0.376605 14.8413 0.72682 15.5842 1.34509L 17.8231 -1.34509ZM 15.3675 51.4623C 14.7434 52.2002 14.8356 53.3044 15.5735 53.9286C 16.3114 54.5528 17.4156 54.4606 18.0398 53.7227L 15.3675 51.4623ZM -1.23898 20.0013C -0.369046 20.8734 0.765578 22.6358 1.09422 24.9107C 1.41304 27.1175 0.991454 29.916 -1.38691 33.0068L 1.38691 35.1412C 4.32853 31.3185 5.01528 27.5737 4.55826 24.4102C 4.11108 21.3148 2.58571 18.8796 1.23898 17.5295L -1.23898 20.0013ZM 7.51279 12.466C 9.92818 14.4404 12.8539 18.2271 13.7006 23.0495C 14.5288 27.7666 13.4144 33.7303 7.33647 40.2922L 9.90422 42.6706C 16.6337 35.4053 18.1874 28.365 17.1479 22.4442C 16.1268 16.6288 12.6489 12.1439 9.7279 9.75616L 7.51279 12.466ZM 15.5842 1.34509C 19.667 4.74313 24.6297 11.3625 26.073 20.0402C 27.5021 28.6324 25.5182 39.4622 15.3675 51.4623L 18.0398 53.7227C 28.775 41.0314 31.1423 29.1864 29.5256 19.4659C 27.923 9.8309 22.4427 2.49965 17.8231 -1.34509L 15.5842 1.34509Z"/>
</defs>
</svg>
